<svg width="206" height="194" viewBox="0 0 206 194" fill="none" xmlns="http://www.w3.org/2000/svg">
<path opacity="0.996" d="M3.31294 136.404L82.252 90.9923C85.3622 89.1966 89.9334 89.3733 92.7375 90.9923L171.496 136.404C172.363 136.897 173.085 137.611 173.587 138.473C174.088 139.335 174.353 140.315 174.353 141.313C174.353 142.31 174.088 143.29 173.587 144.152C173.085 145.014 172.363 145.728 171.496 146.221L90.2616 192.893C89.3947 193.4 88.4083 193.668 87.4037 193.668C86.3992 193.668 85.4128 193.4 84.5458 192.893L3.31294 146.221C-0.671044 144.154 -0.671044 138.643 3.31294 136.404Z" fill="url(#paint0_radial_2117_1113)" stroke="#1F8885" stroke-opacity="0.49" stroke-width="0.465699"/>
<mask id="mask0_2117_1113" style="mask-type:luminance" maskUnits="userSpaceOnUse" x="0" y="89" width="175" height="105">
<path d="M3.31953 136.404L82.2586 90.9923C85.3688 89.1966 89.94 89.3733 92.7441 90.9923L171.502 136.404C172.37 136.897 173.091 137.611 173.593 138.473C174.095 139.335 174.36 140.315 174.36 141.313C174.36 142.31 174.095 143.29 173.593 144.152C173.091 145.014 172.37 145.728 171.502 146.221L90.2682 192.893C89.4013 193.4 88.4148 193.668 87.4103 193.668C86.4058 193.668 85.4194 193.4 84.5524 192.893L3.31953 146.221C-0.664453 144.154 -0.664453 138.643 3.31953 136.404Z" fill="white"/>
</mask>
<g mask="url(#mask0_2117_1113)">
<path d="M3.31953 145.483L82.2586 100.07C85.3688 98.2747 89.94 98.4515 92.7441 100.07L171.502 145.483C172.37 145.975 173.091 146.689 173.593 147.551C174.095 148.413 174.36 149.393 174.36 150.391C174.36 151.388 174.095 152.368 173.593 153.23C173.091 154.092 172.37 154.806 171.502 155.299L90.2682 201.971C89.4013 202.479 88.4148 202.746 87.4103 202.746C86.4058 202.746 85.4194 202.479 84.5524 201.971L3.31953 155.299C-0.664453 153.233 -0.664453 147.721 3.31953 145.483Z" fill="url(#paint1_linear_2117_1113)"/>
</g>
<path opacity="0.996" d="M15.757 137.115L82.9526 98.4589C85.6008 96.9303 89.4912 97.0808 91.8781 98.4589L158.919 137.115C159.658 137.534 160.272 138.142 160.699 138.876C161.127 139.61 161.352 140.444 161.352 141.293C161.352 142.143 161.127 142.977 160.699 143.711C160.272 144.445 159.658 145.052 158.919 145.471L89.7707 185.2C89.0327 185.632 88.193 185.86 87.3379 185.86C86.4828 185.86 85.6431 185.632 84.9052 185.2L15.757 145.471C12.3658 143.712 12.3658 139.021 15.757 137.115Z" fill="url(#paint2_radial_2117_1113)" stroke="#1F8885" stroke-opacity="0.49" stroke-width="0.465699"/>
<mask id="mask1_2117_1113" style="mask-type:luminance" maskUnits="userSpaceOnUse" x="13" y="97" width="149" height="89">
<path d="M15.7533 137.117L82.9489 98.4609C85.5971 96.9323 89.4875 97.0827 91.8745 98.4609L158.915 137.117C159.654 137.536 160.268 138.144 160.696 138.878C161.123 139.612 161.348 140.446 161.348 141.295C161.348 142.145 161.123 142.979 160.696 143.713C160.268 144.447 159.654 145.054 158.915 145.473L89.767 185.202C89.029 185.634 88.1894 185.862 87.3343 185.862C86.4791 185.862 85.6395 185.634 84.9015 185.202L15.7533 145.473C12.3622 143.714 12.3622 139.023 15.7533 137.117Z" fill="white"/>
</mask>
<g mask="url(#mask1_2117_1113)">
<path d="M15.7533 129.956L82.9489 91.2997C85.5971 89.7712 89.4875 89.9216 91.8745 91.2997L158.915 129.956C159.654 130.375 160.268 130.983 160.696 131.717C161.123 132.451 161.348 133.285 161.348 134.134C161.348 134.983 161.123 135.817 160.696 136.551C160.268 137.285 159.654 137.893 158.915 138.312L89.767 178.041C89.029 178.473 88.1894 178.7 87.3343 178.7C86.4791 178.7 85.6395 178.473 84.9015 178.041L15.7533 138.312C12.3622 136.553 12.3622 131.862 15.7533 129.956Z" fill="#325B2B"/>
</g>
<path opacity="0.769" d="M106.5 29.4277L172.769 66.5752C176.379 68.983 176.156 69.3636 176.36 72.828L176.538 127.495C176.538 130.066 174.404 132.909 171.884 131.604L104.625 93.4141C102.026 91.8783 101.702 90.6529 101.702 88.0823V32.923C102.013 27.0601 106.5 29.4277 106.5 29.4277Z" fill="url(#paint3_linear_2117_1113)"/>
<path opacity="0.459" d="M110.333 27.6465L176.602 64.794C180.212 67.2017 179.989 67.5824 180.193 71.0468L180.371 125.714C180.371 128.285 178.237 131.128 175.717 129.823L108.458 91.6328C105.859 90.097 105.535 88.8716 105.535 86.3011V31.1418C105.846 25.2788 110.333 27.6465 110.333 27.6465Z" fill="url(#paint4_linear_2117_1113)"/>
<path d="M36.9005 133.922L84.4054 106.593C86.2768 105.513 89.0279 105.619 90.7154 106.593L138.111 133.922C138.633 134.218 139.067 134.648 139.369 135.167C139.672 135.686 139.831 136.275 139.831 136.876C139.831 137.476 139.672 138.066 139.369 138.585C139.067 139.103 138.633 139.533 138.111 139.829L89.2257 167.916C88.704 168.222 88.1103 168.383 87.5058 168.383C86.9013 168.383 86.3077 168.222 85.786 167.916L36.9005 139.829C34.5032 138.586 34.5032 135.269 36.9005 133.922Z" fill="url(#paint5_linear_2117_1113)"/>
<path d="M45.2365 133.814L84.6996 111.111C86.2544 110.214 88.5397 110.302 89.9415 111.111L129.314 133.814C129.748 134.06 130.108 134.417 130.359 134.848C130.611 135.279 130.743 135.769 130.743 136.268C130.743 136.766 130.611 137.256 130.359 137.688C130.108 138.119 129.748 138.475 129.314 138.722L88.7037 162.053C88.2703 162.307 87.7772 162.441 87.275 162.441C86.7728 162.441 86.2796 162.307 85.8463 162.053L45.2365 138.721C43.2451 137.688 43.2451 134.933 45.2365 133.814Z" fill="url(#paint6_linear_2117_1113)"/>
<path d="M45.2365 105.49L84.6996 82.788C86.2544 81.8903 88.5397 81.9787 89.9415 82.788L129.314 105.49C129.748 105.737 130.108 106.093 130.359 106.524C130.611 106.956 130.743 107.445 130.743 107.944C130.743 108.443 130.611 108.933 130.359 109.364C130.108 109.795 129.748 110.152 129.314 110.398L88.7037 133.73C88.2703 133.984 87.7772 134.117 87.275 134.117C86.7728 134.117 86.2796 133.984 85.8463 133.73L45.2365 110.397C43.2451 109.365 43.2451 106.61 45.2365 105.49Z" fill="url(#paint7_linear_2117_1113)"/>
<path d="M48.5938 105.174L84.8993 84.2875C86.3293 83.4616 88.4322 83.543 89.7219 84.2875L125.945 105.173C126.344 105.4 126.676 105.728 126.907 106.124C127.138 106.521 127.26 106.972 127.26 107.431C127.26 107.89 127.138 108.34 126.907 108.737C126.676 109.133 126.344 109.462 125.945 109.688L88.584 131.155C88.1853 131.388 87.7316 131.511 87.2696 131.511C86.8076 131.511 86.3539 131.388 85.9552 131.155L48.5938 109.688C46.7614 108.738 46.7614 106.204 48.5938 105.174Z" fill="url(#paint8_linear_2117_1113)"/>
<path d="M49.8859 104.456L84.9781 84.2679C86.3608 83.4695 88.3929 83.5482 89.639 84.2679L124.651 104.456C125.037 104.675 125.358 104.992 125.581 105.375C125.804 105.759 125.922 106.194 125.922 106.638C125.922 107.081 125.804 107.517 125.581 107.9C125.358 108.284 125.037 108.601 124.651 108.82L88.5389 129.568C88.1535 129.793 87.715 129.912 87.2685 129.912C86.8219 129.912 86.3834 129.793 85.998 129.568L49.8859 108.82C48.1145 107.901 48.1145 105.451 49.8859 104.456Z" fill="url(#paint9_linear_2117_1113)"/>
<path d="M45.2316 80.2552L84.6949 57.5527C86.2497 56.6549 88.535 56.7434 89.9368 57.5527L129.309 80.2552C129.743 80.5013 130.104 80.8582 130.355 81.2892C130.606 81.7203 130.738 82.2103 130.738 82.7092C130.738 83.2081 130.606 83.698 130.355 84.1291C130.104 84.5602 129.743 84.917 129.309 85.1632L89.047 108.495C88.699 108.88 86.547 109.011 85.6811 108.495L45.2316 85.4446C43.2402 84.4109 43.2402 81.3743 45.2316 80.2552Z" fill="url(#paint10_linear_2117_1113)"/>
<path d="M43.7416 107.77C43.5688 105.84 43.7416 136.579 43.7416 136.579C43.7416 136.579 43.5978 137.872 45.6076 138.991C47.6174 140.111 83.033 160.447 84.2102 161.052C85.3875 161.657 86.7235 163.472 90.1422 161.221C93.5609 158.97 129.048 138.991 129.048 138.991C129.048 138.991 130.884 138.012 131.027 136.579C131.17 135.147 130.78 107.77 130.78 107.77C130.437 108.816 129.742 109.711 128.814 110.304C127.284 111.251 89.8391 132.593 89.8391 132.593C89.8391 132.593 87.7154 134.634 84.4327 132.593C81.1499 130.553 45.6076 110.304 45.6076 110.304C45.0941 110.093 44.6483 109.745 44.3192 109.298C43.99 108.852 43.7903 108.323 43.7416 107.77Z" fill="url(#paint11_linear_2117_1113)"/>
<path d="M43.7416 107.77C43.5688 105.84 43.7416 136.579 43.7416 136.579C43.7416 136.579 43.5978 137.872 45.6076 138.991C47.6174 140.111 83.033 160.447 84.2102 161.052C85.3875 161.657 86.7235 163.472 90.1422 161.221C93.5609 158.97 129.048 138.991 129.048 138.991C129.048 138.991 130.884 138.012 131.027 136.579C131.17 135.147 130.78 107.77 130.78 107.77C130.437 108.816 129.742 109.711 128.814 110.304C127.284 111.251 89.8391 132.593 89.8391 132.593C89.8391 132.593 87.7154 134.634 84.4327 132.593C81.1499 130.553 45.6076 110.304 45.6076 110.304C45.0941 110.093 44.6483 109.745 44.3192 109.298C43.99 108.852 43.7903 108.323 43.7416 107.77Z" fill="url(#paint12_linear_2117_1113)"/>
<path d="M43.7416 82.8976C43.5688 80.9678 43.7416 100.996 43.7416 100.996C43.7416 100.996 43.5978 102.288 45.6076 103.407C47.6174 104.526 83.0332 124.863 84.2108 125.468C85.3883 126.073 86.724 127.888 90.1427 125.637C93.5614 123.386 129.048 103.407 129.048 103.407C129.048 103.407 130.885 102.428 131.028 100.996C131.171 99.563 130.781 82.8974 130.781 82.8974C130.437 83.9434 129.743 84.8386 128.815 85.4313C127.284 86.3784 89.8396 107.721 89.8396 107.721C89.8396 107.721 87.7159 109.761 84.4332 107.721C81.1504 105.681 45.6081 85.4313 45.6081 85.4313C45.0945 85.2208 44.6488 84.8731 44.3195 84.4262C43.9903 83.9794 43.7904 83.4505 43.7416 82.8976Z" fill="url(#paint13_linear_2117_1113)"/>
<g filter="url(#filter0_d_2117_1113)">
<g opacity="0.322">
<path d="M87.3613 94.2075C97.402 94.2075 105.542 88.8315 105.542 82.1999C105.542 75.5684 97.402 70.1924 87.3613 70.1924C77.3205 70.1924 69.1809 75.5684 69.1809 82.1999C69.1809 88.8315 77.3205 94.2075 87.3613 94.2075Z" stroke="#3F3C58" stroke-width="4.65699"/>
</g>
</g>
<g filter="url(#filter1_d_2117_1113)">
<g opacity="0.322">
<path d="M87.5413 90.4634C95.216 90.4634 101.438 86.5178 101.438 81.6506C101.438 76.7835 95.216 72.8379 87.5413 72.8379C79.8666 72.8379 73.645 76.7835 73.645 81.6506C73.645 86.5178 79.8666 90.4634 87.5413 90.4634Z" stroke="#3F3C58" stroke-width="1.3971"/>
</g>
</g>
<path opacity="0.697" d="M175.343 68.4065C174.806 67.825 178.648 66.3078 178.648 66.3078C178.648 66.3078 180.113 66.9409 180.174 69.2104C180.234 71.48 180.334 124.974 180.334 124.974C180.334 124.974 180.754 127.543 178.901 129.385C177.049 131.227 173.47 132.045 173.47 132.045C173.47 132.045 174.763 131.646 175.542 130.585C176.32 129.524 176.587 127.801 176.587 127.801L176.339 71.1364C176.339 71.1364 175.88 68.9878 175.343 68.4065Z" fill="url(#paint14_linear_2117_1113)"/>
<g filter="url(#filter2_d_2117_1113)">
<path opacity="0.085" d="M80.5728 104.998C80.6258 105.051 85.4266 108.403 87.5861 108.282C88.4636 108.233 130.517 84.9618 130.564 82.8514C130.61 80.7409 127.366 79.3783 127.366 79.3783L90.2947 58.1689C90.2947 58.1689 87.5934 56.1365 84.2883 58.1689C73.9728 64.1009 50.6013 77.4021 46.5982 79.6901C41.4536 82.6311 45.8855 85.1783 45.8855 85.1783C45.8855 85.1783 80.4976 104.922 80.5728 104.998Z" stroke="#1ABFB4" stroke-width="1.8628" stroke-linecap="round"/>
</g>
<path opacity="0.848" d="M104.316 28.9537C103.547 29.1414 107.596 27.3416 107.596 27.3416C107.596 27.3416 108.586 26.8224 110.6 27.8695C112.613 28.9166 161.113 56.061 161.113 56.061L157.699 58.2049L107.596 29.9964C107.596 29.9964 105.085 28.766 104.316 28.9537Z" fill="url(#paint15_linear_2117_1113)"/>
<path d="M83.6109 61.5612L87.1367 59.5584C87.273 59.5352 87.4122 59.5352 87.5485 59.5584L91.0213 61.5612C91.0595 61.5829 91.0913 61.6144 91.1134 61.6523C91.1355 61.6903 91.1472 61.7335 91.1472 61.7775C91.1472 61.8214 91.1355 61.8646 91.1134 61.9026C91.0913 61.9406 91.0595 61.972 91.0213 61.9937L87.442 64.0502C87.4038 64.0725 87.3603 64.0843 87.316 64.0843C87.2718 64.0843 87.2283 64.0725 87.1901 64.0502L83.6109 61.9937C83.5712 61.9732 83.538 61.9422 83.5148 61.904C83.4915 61.8659 83.4792 61.8221 83.4792 61.7775C83.4792 61.7328 83.4915 61.689 83.5148 61.6509C83.538 61.6127 83.5712 61.5817 83.6109 61.5612Z" fill="url(#paint16_linear_2117_1113)"/>
<path d="M83.6109 61.5614L87.0889 59.5604C87.1603 59.5233 87.2395 59.5039 87.3199 59.5039C87.4003 59.5039 87.4796 59.5233 87.5509 59.5604L91.0213 61.5614C91.0595 61.5831 91.0913 61.6145 91.1134 61.6525C91.1355 61.6905 91.1472 61.7337 91.1472 61.7776C91.1472 61.8216 91.1355 61.8648 91.1134 61.9027C91.0913 61.9407 91.0595 61.9722 91.0213 61.9939L87.442 64.0503C87.4038 64.0727 87.3603 64.0845 87.316 64.0845C87.2718 64.0845 87.2283 64.0727 87.1901 64.0503L83.6109 61.9939C83.5712 61.9734 83.538 61.9424 83.5148 61.9042C83.4915 61.8661 83.4792 61.8223 83.4792 61.7776C83.4792 61.733 83.4915 61.6892 83.5148 61.651C83.538 61.6129 83.5712 61.5819 83.6109 61.5614Z" fill="url(#paint17_linear_2117_1113)"/>
<path opacity="0.399" d="M91.1433 61.8123C91.1491 61.9359 90.986 62.0149 90.986 62.0149C90.986 62.0149 90.3884 62.358 89.684 62.7641C88.8044 63.2699 87.7533 63.8743 87.5785 63.9755C87.5005 64.029 87.4082 64.0576 87.3137 64.0576C87.2191 64.0576 87.1268 64.029 87.0489 63.9755L83.5608 61.9588C83.5608 61.9588 83.4843 61.9274 83.4817 61.79" stroke="white" stroke-width="0.465699" stroke-linecap="round" stroke-linejoin="round"/>
<path d="M84.5675 61.6235L87.2158 60.1474C87.244 60.1308 87.2762 60.1221 87.309 60.1221C87.3417 60.1221 87.3739 60.1308 87.4022 60.1474L90.0504 61.6235C90.0787 61.6395 90.1023 61.6628 90.1186 61.6909C90.135 61.719 90.1437 61.751 90.1437 61.7835C90.1437 61.8161 90.135 61.848 90.1186 61.8761C90.1023 61.9042 90.0787 61.9275 90.0504 61.9436L87.4022 63.4654C87.3739 63.482 87.3417 63.4907 87.309 63.4907C87.2762 63.4907 87.244 63.482 87.2158 63.4654L84.5675 61.9436C84.5382 61.9284 84.5136 61.9054 84.4965 61.8772C84.4793 61.8489 84.4702 61.8165 84.4702 61.7835C84.4702 61.7505 84.4793 61.7181 84.4965 61.6899C84.5136 61.6616 84.5382 61.6387 84.5675 61.6235Z" fill="url(#paint18_linear_2117_1113)"/>
<path d="M85.7822 61.626L87.2409 60.7963C87.2973 60.7867 87.3549 60.7867 87.4112 60.7963L88.8478 61.626C88.8636 61.635 88.8768 61.648 88.886 61.6638C88.8951 61.6795 88.8999 61.6974 88.8999 61.7156C88.8999 61.7337 88.8951 61.7516 88.886 61.7673C88.8768 61.7831 88.8636 61.7961 88.8478 61.8051L87.3671 62.655C87.3513 62.6642 87.3333 62.6691 87.315 62.6691C87.2967 62.6691 87.2787 62.6642 87.2629 62.655L85.7822 61.8044C85.766 61.7958 85.7523 61.783 85.7428 61.7673C85.7333 61.7516 85.7283 61.7336 85.7283 61.7152C85.7283 61.6968 85.7333 61.6788 85.7428 61.6631C85.7523 61.6474 85.766 61.6346 85.7822 61.626Z" fill="url(#paint19_linear_2117_1113)"/>
<path d="M85.7827 61.6256L87.2216 60.7978C87.2511 60.7824 87.2839 60.7744 87.3172 60.7744C87.3505 60.7744 87.3833 60.7824 87.4128 60.7978L88.8483 61.6256C88.8641 61.6346 88.8773 61.6476 88.8865 61.6633C88.8956 61.6791 88.9004 61.6969 88.9004 61.7151C88.9004 61.7333 88.8956 61.7512 88.8865 61.7669C88.8773 61.7826 88.8641 61.7956 88.8483 61.8046L87.3676 62.6552C87.3518 62.6645 87.3338 62.6694 87.3155 62.6694C87.2972 62.6694 87.2793 62.6645 87.2635 62.6552L85.7827 61.8045C85.7663 61.796 85.7526 61.7832 85.743 61.7674C85.7334 61.7516 85.7283 61.7335 85.7283 61.715C85.7283 61.6966 85.7334 61.6785 85.743 61.6627C85.7526 61.6469 85.7663 61.6341 85.7827 61.6256Z" fill="url(#paint20_linear_2117_1113)"/>
<path opacity="0.399" d="M88.8975 61.7306C88.8996 61.7818 88.8325 61.8143 88.8325 61.8143C88.8325 61.8143 88.5861 61.9555 88.293 62.1241C87.9295 62.3335 87.4949 62.5831 87.4231 62.6255C87.3907 62.6478 87.3523 62.6596 87.3131 62.6596C87.2738 62.6596 87.2354 62.6478 87.2031 62.6255L85.7603 61.7913C85.7603 61.7913 85.729 61.7783 85.7283 61.7207" stroke="white" stroke-width="0.465699" stroke-linecap="round" stroke-linejoin="round"/>
<path d="M86.1761 61.6505L87.2724 61.0398C87.2841 61.0329 87.2975 61.0293 87.311 61.0293C87.3246 61.0293 87.3379 61.0329 87.3496 61.0398L88.4454 61.6505C88.4571 61.6571 88.4669 61.6667 88.4737 61.6783C88.4804 61.69 88.484 61.7032 88.484 61.7167C88.484 61.7301 88.4804 61.7433 88.4737 61.755C88.4669 61.7666 88.4571 61.7762 88.4454 61.7829L87.3496 62.4124C87.3379 62.4193 87.3246 62.4229 87.311 62.4229C87.2975 62.4229 87.2841 62.4193 87.2724 62.4124L86.1761 61.7829C86.1639 61.7766 86.1537 61.7671 86.1466 61.7554C86.1395 61.7437 86.1357 61.7303 86.1357 61.7167C86.1357 61.703 86.1395 61.6896 86.1466 61.6779C86.1537 61.6662 86.1639 61.6567 86.1761 61.6505Z" fill="url(#paint21_linear_2117_1113)"/>
<path d="M87.3612 85.8281C91.2717 85.8281 94.4418 83.6335 94.4418 80.9263C94.4418 78.219 91.2717 76.0244 87.3612 76.0244C83.4506 76.0244 80.2805 78.219 80.2805 80.9263C80.2805 83.6335 83.4506 85.8281 87.3612 85.8281Z" fill="url(#paint22_linear_2117_1113)"/>
<path d="M87.3605 85.7395C91.2223 85.7395 94.3529 83.5844 94.3529 80.9259C94.3529 78.2674 91.2223 76.1123 87.3605 76.1123C83.4987 76.1123 80.3682 78.2674 80.3682 80.9259C80.3682 83.5844 83.4987 85.7395 87.3605 85.7395Z" stroke="#3F3C58" stroke-width="0.465699"/>
<path d="M80.3988 82.2716C80.0543 82.3578 80.6591 28.418 80.6591 28.418C80.6591 28.418 94.2986 36.5713 94.2986 40.4658V81.8163C94.2986 81.8163 87.0195 75.595 80.3988 82.2716Z" fill="url(#paint23_linear_2117_1113)"/>
<g opacity="0.206">
<path d="M87.1426 64.3951C87.0208 64.4814 86.9284 64.6028 86.8777 64.7431C86.827 64.8834 86.8205 65.0359 86.859 65.1801C86.8975 65.3242 86.9791 65.4531 87.093 65.5495C87.2069 65.6459 87.3476 65.7051 87.4961 65.7191C87.6447 65.7332 87.794 65.7015 87.9239 65.6283C88.0539 65.555 88.1584 65.4438 88.2233 65.3094C88.2882 65.1751 88.3104 65.0241 88.287 64.8767C88.2636 64.7294 88.1956 64.5927 88.0922 64.4851C88.0859 64.4745 88.0775 64.4652 88.0675 64.4578C87.9779 64.3946 87.9037 64.3119 87.8506 64.216C87.7974 64.1201 87.7666 64.0134 87.7605 63.904C87.7605 63.6963 87.8101 63.5879 88.0675 63.339L88.0622 63.3312C88.17 63.2311 88.2451 63.1008 88.2775 62.9573C88.31 62.8138 88.2984 62.6639 88.2443 62.5271C88.1901 62.3903 88.0959 62.273 87.974 62.1907C87.8521 62.1083 87.7082 62.0647 87.5611 62.0654C87.414 62.0662 87.2705 62.1114 87.1495 62.1951C87.0285 62.2787 86.9356 62.397 86.8829 62.5344C86.8302 62.6717 86.8202 62.8218 86.8543 62.9649C86.8883 63.108 86.9647 63.2376 87.0736 63.3365L87.0709 63.3404C87.3281 63.5876 87.3779 63.697 87.3779 63.9054C87.3735 63.9986 87.3505 64.09 87.31 64.1742C87.2696 64.2583 87.2127 64.3334 87.1426 64.3951Z" fill="white"/>
<path d="M90.1064 67.921C90.1064 67.7993 90.076 67.6794 90.018 67.5724C89.96 67.4654 89.8762 67.3745 89.7742 67.308C89.6722 67.2416 89.5553 67.2016 89.4339 67.1918C89.3126 67.182 89.1907 67.2026 89.0793 67.2519C88.968 67.3011 88.8707 67.3773 88.7962 67.4736C88.7218 67.5699 88.6725 67.6833 88.653 67.8035C88.6335 67.9236 88.6442 68.0468 88.6843 68.1617C88.7244 68.2767 88.7925 68.3798 88.8826 68.4618L88.8799 68.4644C89.1371 68.7116 89.1869 68.821 89.1869 69.0294C89.1832 69.1229 89.1604 69.2147 89.12 69.2992C89.0795 69.3836 89.0223 69.459 88.9518 69.5205C88.83 69.6068 88.7376 69.7282 88.6868 69.8685C88.6361 70.0088 88.6296 70.1613 88.668 70.3054C88.7065 70.4496 88.7881 70.5785 88.902 70.6749C89.0159 70.7713 89.1566 70.8305 89.3051 70.8446C89.4536 70.8587 89.6029 70.8271 89.7329 70.7538C89.8629 70.6806 89.9674 70.5694 90.0323 70.435C90.0972 70.3007 90.1195 70.1497 90.0961 70.0024C90.0727 69.855 90.0048 69.7184 89.9014 69.6107C89.895 69.6001 89.8866 69.5908 89.8765 69.5834C89.7869 69.5202 89.7127 69.4375 89.6596 69.3416C89.6064 69.2457 89.5756 69.139 89.5695 69.0295C89.5695 68.8219 89.6191 68.7134 89.8765 68.4646L89.8714 68.4567C89.9457 68.3886 90.005 68.3059 90.0454 68.2136C90.0859 68.1214 90.1066 68.0217 90.1064 67.921Z" fill="white"/>
<path d="M85.3314 69.5199C85.2097 69.6062 85.1172 69.7276 85.0665 69.8679C85.0158 70.0082 85.0092 70.1607 85.0477 70.3048C85.0861 70.449 85.1678 70.5779 85.2817 70.6743C85.3956 70.7707 85.5362 70.8299 85.6847 70.844C85.8333 70.8581 85.9826 70.8265 86.1125 70.7532C86.2425 70.68 86.347 70.5688 86.4119 70.4344C86.4769 70.3001 86.4991 70.1491 86.4757 70.0018C86.4523 69.8544 86.3844 69.7178 86.2811 69.6101C86.2746 69.5995 86.2662 69.5902 86.2562 69.5828C86.1665 69.5196 86.0924 69.437 86.0392 69.341C85.986 69.2451 85.9553 69.1384 85.9492 69.029C85.9492 68.8213 85.9988 68.7129 86.2562 68.464L86.2509 68.4562C86.3587 68.3561 86.4337 68.2258 86.4662 68.0823C86.4987 67.9388 86.4871 67.7888 86.4329 67.6521C86.3788 67.5153 86.2846 67.398 86.1627 67.3157C86.0408 67.2333 85.8969 67.1897 85.7497 67.1904C85.6026 67.1912 85.4592 67.2364 85.3382 67.3201C85.2172 67.4037 85.1242 67.522 85.0716 67.6594C85.0189 67.7967 85.0089 67.9468 85.0429 68.0899C85.0769 68.233 85.1534 68.3626 85.2622 68.4615L85.2596 68.4654C85.5168 68.7126 85.5666 68.822 85.5666 69.0304C85.5628 69.1237 85.54 69.2152 85.4995 69.2994C85.4591 69.3836 85.4019 69.4587 85.3314 69.5199Z" fill="white"/>
<path d="M91.9915 69.1212C91.9915 68.9995 91.9612 68.8796 91.9032 68.7726C91.8452 68.6656 91.7614 68.5747 91.6594 68.5082C91.5574 68.4418 91.4404 68.4018 91.319 68.392C91.1977 68.3822 91.0758 68.4028 90.9645 68.452C90.8531 68.5013 90.7558 68.5775 90.6813 68.6738C90.6069 68.7701 90.5577 68.8835 90.5381 69.0037C90.5186 69.1238 90.5293 69.247 90.5694 69.3619C90.6095 69.4769 90.6777 69.58 90.7677 69.662L90.765 69.6659C91.0224 69.913 91.072 70.0225 91.072 70.2308C91.0683 70.3244 91.0455 70.4162 91.0051 70.5006C90.9647 70.5851 90.9074 70.6604 90.8369 70.722C90.7151 70.8082 90.6226 70.9296 90.5719 71.0699C90.5212 71.2102 90.5146 71.3627 90.553 71.5069C90.5915 71.651 90.6731 71.78 90.787 71.8764C90.9009 71.9728 91.0416 72.032 91.1901 72.0461C91.3386 72.0602 91.4879 72.0286 91.6179 71.9553C91.7479 71.8821 91.8524 71.7708 91.9173 71.6365C91.9823 71.5022 92.0045 71.3512 91.9811 71.2038C91.9577 71.0564 91.8897 70.9198 91.7864 70.8122C91.78 70.8015 91.7715 70.7922 91.7615 70.7848C91.6719 70.7216 91.5977 70.639 91.5445 70.5431C91.4914 70.4472 91.4606 70.3405 91.4545 70.231C91.4545 70.0234 91.5041 69.9148 91.7615 69.666L91.7562 69.6583C91.8304 69.5899 91.8896 69.5068 91.9301 69.4144C91.9707 69.322 91.9916 69.2221 91.9915 69.1212Z" fill="white"/>
<path d="M93.6458 69.7576C93.5562 69.6944 93.4821 69.6117 93.4289 69.5158C93.3758 69.4199 93.345 69.3132 93.3389 69.2038C93.3389 68.9961 93.3886 68.8877 93.6458 68.6388L93.6407 68.631C93.7484 68.5309 93.8235 68.4006 93.856 68.2571C93.8885 68.1136 93.8769 67.9637 93.8227 67.8269C93.7686 67.6901 93.6744 67.5728 93.5525 67.4905C93.4306 67.4081 93.2866 67.3645 93.1395 67.3652C92.9924 67.366 92.849 67.4112 92.728 67.4949C92.607 67.5785 92.514 67.6968 92.4613 67.8342C92.4087 67.9715 92.3987 68.1216 92.4327 68.2647C92.4667 68.4078 92.5431 68.5374 92.652 68.6363L92.6493 68.6402C92.9066 68.8874 92.9564 68.9968 92.9564 69.2052C92.9526 69.2987 92.9298 69.3905 92.8894 69.475C92.849 69.5594 92.7917 69.6347 92.7212 69.6963C92.5995 69.7826 92.507 69.904 92.4563 70.0443C92.4056 70.1847 92.3991 70.3371 92.4376 70.4813C92.4761 70.6254 92.5578 70.7543 92.6717 70.8507C92.7856 70.9471 92.9262 71.0063 93.0748 71.0204C93.2233 71.0344 93.3726 71.0027 93.5026 70.9295C93.6325 70.8562 93.737 70.745 93.8019 70.6106C93.8668 70.4763 93.889 70.3253 93.8656 70.178C93.8422 70.0306 93.7742 69.894 93.6709 69.7864C93.6657 69.7744 93.6569 69.7643 93.6458 69.7576Z" fill="white"/>
<path d="M82.6501 68.0685C82.6502 67.9467 82.6198 67.8269 82.5618 67.7199C82.5038 67.6128 82.42 67.522 82.318 67.4555C82.216 67.3891 82.099 67.3491 81.9776 67.3393C81.8563 67.3295 81.7344 67.3501 81.6231 67.3993C81.5117 67.4485 81.4144 67.5247 81.34 67.6211C81.2655 67.7174 81.2163 67.8308 81.1967 67.9509C81.1772 68.0711 81.188 68.1942 81.228 68.3092C81.2681 68.4242 81.3363 68.5273 81.4263 68.6092L81.4237 68.6131C81.6809 68.8603 81.7307 68.9697 81.7307 69.1781C81.7269 69.2716 81.7041 69.3634 81.6637 69.4479C81.6233 69.5323 81.566 69.6077 81.4955 69.6692C81.3742 69.7558 81.2822 69.8774 81.232 70.0177C81.1818 70.158 81.1757 70.3104 81.2145 70.4543C81.2534 70.5982 81.3353 70.7267 81.4493 70.8227C81.5633 70.9187 81.7039 70.9776 81.8523 70.9913C82.0007 71.0051 82.1498 70.9732 82.2795 70.8998C82.4092 70.8264 82.5134 70.7151 82.5781 70.5808C82.6427 70.4466 82.6648 70.2957 82.6412 70.1485C82.6177 70.0014 82.5497 69.8649 82.4464 69.7575C82.44 69.7468 82.4315 69.7375 82.4215 69.7301C82.3319 69.6669 82.2577 69.5843 82.2045 69.4884C82.1514 69.3925 82.1206 69.2858 82.1145 69.1763C82.1145 68.9687 82.1641 68.8603 82.4215 68.6114L82.4162 68.6036C82.49 68.5354 82.5489 68.4526 82.5891 68.3605C82.6294 68.2684 82.6502 68.169 82.6501 68.0685Z" fill="white"/>
<path d="M87.1428 70.7191C87.0211 70.8054 86.9286 70.9268 86.8779 71.0671C86.8272 71.2074 86.8206 71.3599 86.8591 71.504C86.8976 71.6482 86.9792 71.7771 87.0931 71.8735C87.207 71.9699 87.3476 72.0291 87.4962 72.0432C87.6447 72.0573 87.794 72.0257 87.924 71.9524C88.054 71.8792 88.1584 71.768 88.2234 71.6337C88.2883 71.4993 88.3105 71.3483 88.2872 71.201C88.2638 71.0536 88.1958 70.917 88.0925 70.8094C88.0861 70.7987 88.0777 70.7894 88.0678 70.782C87.9781 70.7188 87.904 70.6362 87.8508 70.5403C87.7976 70.4443 87.7669 70.3377 87.7608 70.2282C87.7579 70.141 87.7747 70.0542 87.81 69.9744C87.8453 69.8946 87.8981 69.8238 87.9645 69.7672C88.0664 69.7007 88.1501 69.6099 88.208 69.5029C88.2659 69.396 88.2962 69.2762 88.2962 69.1546V69.1193C88.2963 68.99 88.2621 68.863 88.1969 68.7513C88.1318 68.6396 88.0381 68.5472 87.9255 68.4837C87.8229 68.3688 87.7646 68.2211 87.7609 68.067C87.7609 67.8594 87.8105 67.751 88.0679 67.5021L88.0627 67.4943C88.1704 67.3942 88.2455 67.2639 88.278 67.1204C88.3104 66.9769 88.2988 66.8269 88.2447 66.6901C88.1905 66.5534 88.0964 66.4361 87.9745 66.3537C87.8526 66.2714 87.7086 66.2277 87.5615 66.2285C87.4144 66.2293 87.271 66.2745 87.15 66.3582C87.0289 66.4418 86.936 66.5601 86.8833 66.6974C86.8306 66.8348 86.8207 66.9849 86.8547 67.128C86.8887 67.2711 86.9651 67.4006 87.074 67.4996L87.0713 67.5035C87.3286 67.7507 87.3784 67.8601 87.3784 68.0684C87.3742 68.219 87.318 68.3635 87.2195 68.4773C87.1029 68.54 87.0055 68.6331 86.9376 68.7467C86.8698 68.8603 86.834 68.9903 86.8342 69.1226V69.1565C86.8343 69.2822 86.8666 69.4057 86.9282 69.5153C86.9897 69.6248 87.0783 69.7167 87.1856 69.7822C87.2489 69.8379 87.2991 69.907 87.3323 69.9845C87.3655 70.062 87.381 70.146 87.3776 70.2303C87.3732 70.3233 87.3502 70.4146 87.3098 70.4985C87.2695 70.5825 87.2127 70.6575 87.1428 70.7191Z" fill="white"/>
<path d="M89.3654 66.4677C89.7737 66.4677 90.1046 66.1367 90.1046 65.7285C90.1046 65.3202 89.7737 64.9893 89.3654 64.9893C88.9572 64.9893 88.6262 65.3202 88.6262 65.7285C88.6262 66.1367 88.9572 66.4677 89.3654 66.4677Z" fill="white"/>
<path d="M85.7622 66.4677C86.1704 66.4677 86.5014 66.1367 86.5014 65.7285C86.5014 65.3202 86.1704 64.9893 85.7622 64.9893C85.3539 64.9893 85.0229 65.3202 85.0229 65.7285C85.0229 66.1367 85.3539 66.4677 85.7622 66.4677Z" fill="white"/>
<path d="M84.2621 70.7213C84.192 70.6594 84.1351 70.584 84.095 70.4996C84.0548 70.4152 84.0321 70.3235 84.0284 70.2301C84.0284 70.0223 84.078 69.9139 84.3354 69.6652L84.3303 69.6574C84.4381 69.5573 84.5131 69.4269 84.5456 69.2835C84.5781 69.14 84.5665 68.99 84.5123 68.8532C84.4582 68.7165 84.364 68.5992 84.2421 68.5168C84.1202 68.4345 83.9763 68.3908 83.8291 68.3916C83.682 68.3924 83.5386 68.4376 83.4176 68.5213C83.2966 68.6049 83.2036 68.7232 83.151 68.8605C83.0983 68.9979 83.0883 69.148 83.1223 69.2911C83.1563 69.4342 83.2328 69.5637 83.3416 69.6627L83.339 69.6666C83.5964 69.9138 83.646 70.0232 83.646 70.2315C83.6422 70.3251 83.6194 70.4169 83.579 70.5014C83.5386 70.5858 83.4813 70.6611 83.4108 70.7227C83.3153 70.7902 83.2373 70.8796 83.1834 70.9835C83.1296 71.0874 83.1014 71.2026 83.1013 71.3196V71.33C83.1016 71.4571 83.1347 71.5819 83.1973 71.6925C83.2599 71.803 83.3499 71.8956 83.4587 71.9612C83.5675 72.0268 83.6914 72.0633 83.8184 72.0671C83.9454 72.0709 84.0712 72.0419 84.1837 71.9829C84.2963 71.9239 84.3917 71.8369 84.4608 71.7303C84.5299 71.6237 84.5704 71.5011 84.5783 71.3743C84.5862 71.2475 84.5613 71.1208 84.506 71.0064C84.4507 70.892 84.3668 70.7938 84.2625 70.7213H84.2621Z" fill="white"/>
<path d="M85.7622 73.0468C86.1704 73.0468 86.5014 72.7158 86.5014 72.3076C86.5014 71.8993 86.1704 71.5684 85.7622 71.5684C85.3539 71.5684 85.0229 71.8993 85.0229 72.3076C85.0229 72.7158 85.3539 73.0468 85.7622 73.0468Z" fill="white"/>
<path d="M89.3754 73.0468C89.7837 73.0468 90.1146 72.7158 90.1146 72.3076C90.1146 71.8993 89.7837 71.5684 89.3754 71.5684C88.9672 71.5684 88.6362 71.8993 88.6362 72.3076C88.6362 72.7158 88.9672 73.0468 89.3754 73.0468Z" fill="white"/>
</g>
<g opacity="0.206">
<path d="M87.1426 64.7574C87.0208 64.8437 86.9284 64.9651 86.8777 65.1054C86.827 65.2458 86.8205 65.3982 86.859 65.5424C86.8975 65.6865 86.9791 65.8154 87.093 65.9118C87.2069 66.0082 87.3476 66.0674 87.4961 66.0814C87.6447 66.0955 87.794 66.0638 87.9239 65.9906C88.0539 65.9173 88.1584 65.8061 88.2233 65.6717C88.2882 65.5374 88.3104 65.3864 88.287 65.239C88.2636 65.0917 88.1956 64.955 88.0922 64.8475C88.0859 64.8368 88.0775 64.8275 88.0675 64.8201C87.9779 64.7569 87.9037 64.6743 87.8506 64.5783C87.7974 64.4824 87.7666 64.3757 87.7605 64.2663C87.7605 64.0586 87.8101 63.9502 88.0675 63.7013L88.0622 63.6935C88.17 63.5934 88.2451 63.4631 88.2775 63.3196C88.31 63.1761 88.2984 63.0262 88.2443 62.8894C88.1901 62.7526 88.0959 62.6353 87.974 62.553C87.8521 62.4706 87.7082 62.427 87.5611 62.4277C87.414 62.4285 87.2705 62.4737 87.1495 62.5574C87.0285 62.6411 86.9356 62.7593 86.8829 62.8967C86.8302 63.034 86.8202 63.1841 86.8543 63.3272C86.8883 63.4703 86.9647 63.5999 87.0736 63.6988L87.0709 63.7027C87.3281 63.9499 87.3779 64.0593 87.3779 64.2677C87.3735 64.3609 87.3505 64.4523 87.31 64.5365C87.2696 64.6206 87.2127 64.6957 87.1426 64.7574Z" fill="white"/>
<path d="M90.1064 68.2843C90.1064 68.1625 90.076 68.0427 90.018 67.9357C89.96 67.8287 89.8762 67.7378 89.7742 67.6713C89.6722 67.6049 89.5553 67.5649 89.4339 67.5551C89.3126 67.5453 89.1907 67.5659 89.0793 67.6151C88.968 67.6643 88.8707 67.7406 88.7962 67.8369C88.7218 67.9332 88.6725 68.0466 88.653 68.1668C88.6335 68.2869 88.6442 68.4101 88.6843 68.525C88.7244 68.64 88.7925 68.7431 88.8826 68.8251L88.8799 68.8277C89.1371 69.0749 89.1869 69.1843 89.1869 69.3927C89.1832 69.4862 89.1604 69.578 89.12 69.6625C89.0795 69.7469 89.0223 69.8222 88.9518 69.8838C88.83 69.97 88.7376 70.0915 88.6868 70.2318C88.6361 70.3721 88.6296 70.5246 88.668 70.6687C88.7065 70.8129 88.7881 70.9418 88.902 71.0382C89.0159 71.1346 89.1566 71.1938 89.3051 71.2079C89.4536 71.222 89.6029 71.1903 89.7329 71.1171C89.8629 71.0439 89.9674 70.9327 90.0323 70.7983C90.0972 70.664 90.1195 70.513 90.0961 70.3657C90.0727 70.2183 90.0048 70.0816 89.9014 69.974C89.895 69.9634 89.8866 69.9541 89.8765 69.9467C89.7869 69.8835 89.7127 69.8008 89.6596 69.7049C89.6064 69.609 89.5756 69.5023 89.5695 69.3928C89.5695 69.1852 89.6191 69.0766 89.8765 68.8279L89.8714 68.8199C89.9457 68.7519 90.005 68.6691 90.0454 68.5769C90.0859 68.4847 90.1066 68.385 90.1064 68.2843Z" fill="white"/>
<path d="M85.3314 69.8822C85.2097 69.9685 85.1172 70.0899 85.0665 70.2302C85.0158 70.3705 85.0092 70.523 85.0477 70.6671C85.0861 70.8113 85.1678 70.9402 85.2817 71.0366C85.3956 71.133 85.5362 71.1922 85.6847 71.2063C85.8333 71.2204 85.9826 71.1888 86.1125 71.1155C86.2425 71.0423 86.347 70.9311 86.4119 70.7968C86.4769 70.6624 86.4991 70.5114 86.4757 70.3641C86.4523 70.2167 86.3844 70.0801 86.2811 69.9725C86.2746 69.9618 86.2662 69.9525 86.2562 69.9451C86.1665 69.8819 86.0924 69.7993 86.0392 69.7033C85.986 69.6074 85.9553 69.5007 85.9492 69.3913C85.9492 69.1836 85.9988 69.0752 86.2562 68.8263L86.2509 68.8185C86.3587 68.7184 86.4337 68.5881 86.4662 68.4446C86.4987 68.3011 86.4871 68.1512 86.4329 68.0144C86.3788 67.8776 86.2846 67.7603 86.1627 67.678C86.0408 67.5956 85.8969 67.552 85.7497 67.5527C85.6026 67.5535 85.4592 67.5987 85.3382 67.6824C85.2172 67.7661 85.1242 67.8843 85.0716 68.0217C85.0189 68.159 85.0089 68.3091 85.0429 68.4522C85.0769 68.5953 85.1534 68.7249 85.2622 68.8238L85.2596 68.8277C85.5168 69.0749 85.5666 69.1843 85.5666 69.3927C85.5628 69.486 85.54 69.5776 85.4995 69.6617C85.4591 69.7459 85.4019 69.821 85.3314 69.8822Z" fill="white"/>
<path d="M91.9915 69.4835C91.9915 69.3618 91.9612 69.2419 91.9032 69.1349C91.8452 69.0279 91.7614 68.937 91.6594 68.8705C91.5574 68.8041 91.4404 68.7641 91.319 68.7543C91.1977 68.7445 91.0758 68.7651 90.9645 68.8144C90.8531 68.8636 90.7558 68.9398 90.6813 69.0361C90.6069 69.1324 90.5577 69.2458 90.5381 69.366C90.5186 69.4861 90.5293 69.6093 90.5694 69.7242C90.6095 69.8392 90.6777 69.9423 90.7677 70.0243L90.765 70.0282C91.0224 70.2753 91.072 70.3848 91.072 70.5931C91.0683 70.6867 91.0455 70.7785 91.0051 70.8629C90.9647 70.9474 90.9074 71.0227 90.8369 71.0843C90.7151 71.1705 90.6226 71.2919 90.5719 71.4322C90.5212 71.5725 90.5146 71.725 90.553 71.8692C90.5915 72.0133 90.6731 72.1423 90.787 72.2387C90.9009 72.3351 91.0416 72.3943 91.1901 72.4084C91.3386 72.4225 91.4879 72.3909 91.6179 72.3176C91.7479 72.2444 91.8524 72.1332 91.9173 71.9988C91.9823 71.8645 92.0045 71.7135 91.9811 71.5661C91.9577 71.4188 91.8897 71.2821 91.7864 71.1745C91.78 71.1638 91.7715 71.1545 91.7615 71.1471C91.6719 71.0839 91.5977 71.0013 91.5445 70.9054C91.4914 70.8095 91.4606 70.7028 91.4545 70.5933C91.4545 70.3857 91.5041 70.2771 91.7615 70.0283L91.7562 70.0206C91.8304 69.9522 91.8896 69.8691 91.9301 69.7767C91.9707 69.6843 91.9916 69.5844 91.9915 69.4835Z" fill="white"/>
<path d="M93.6458 70.1199C93.5562 70.0567 93.4821 69.974 93.4289 69.8781C93.3758 69.7822 93.345 69.6755 93.3389 69.5661C93.3389 69.3584 93.3886 69.25 93.6458 69.0011L93.6407 68.9933C93.7484 68.8932 93.8235 68.7629 93.856 68.6194C93.8885 68.4759 93.8769 68.326 93.8227 68.1892C93.7686 68.0524 93.6744 67.9351 93.5525 67.8528C93.4306 67.7704 93.2866 67.7268 93.1395 67.7275C92.9924 67.7283 92.849 67.7735 92.728 67.8572C92.607 67.9409 92.514 68.0591 92.4613 68.1965C92.4087 68.3338 92.3987 68.4839 92.4327 68.627C92.4667 68.7701 92.5431 68.8997 92.652 68.9986L92.6493 69.0025C92.9066 69.2497 92.9564 69.3591 92.9564 69.5675C92.9526 69.661 92.9298 69.7528 92.8894 69.8373C92.849 69.9217 92.7917 69.997 92.7212 70.0586C92.5995 70.1449 92.507 70.2663 92.4563 70.4066C92.4056 70.547 92.3991 70.6994 92.4376 70.8436C92.4761 70.9877 92.5578 71.1166 92.6717 71.213C92.7856 71.3094 92.9262 71.3686 93.0748 71.3827C93.2233 71.3967 93.3726 71.365 93.5026 71.2918C93.6325 71.2186 93.737 71.1073 93.8019 70.9729C93.8668 70.8386 93.889 70.6876 93.8656 70.5403C93.8422 70.3929 93.7742 70.2563 93.6709 70.1487C93.6657 70.1367 93.6569 70.1266 93.6458 70.1199Z" fill="white"/>
<path d="M82.6501 68.4308C82.6502 68.309 82.6198 68.1892 82.5618 68.0822C82.5038 67.9751 82.42 67.8843 82.318 67.8178C82.216 67.7514 82.099 67.7114 81.9776 67.7016C81.8563 67.6918 81.7344 67.7124 81.6231 67.7616C81.5117 67.8108 81.4144 67.887 81.34 67.9834C81.2655 68.0797 81.2163 68.1931 81.1967 68.3132C81.1772 68.4334 81.188 68.5566 81.228 68.6715C81.2681 68.7865 81.3363 68.8896 81.4263 68.9715L81.4237 68.9754C81.6809 69.2226 81.7307 69.332 81.7307 69.5404C81.7269 69.6339 81.7041 69.7257 81.6637 69.8102C81.6233 69.8946 81.566 69.97 81.4955 70.0315C81.3742 70.1181 81.2822 70.2397 81.232 70.38C81.1818 70.5204 81.1757 70.6727 81.2145 70.8166C81.2534 70.9605 81.3353 71.089 81.4493 71.185C81.5633 71.281 81.7039 71.3399 81.8523 71.3536C82.0007 71.3674 82.1498 71.3355 82.2795 71.2621C82.4092 71.1887 82.5134 71.0774 82.5781 70.9432C82.6427 70.8089 82.6648 70.658 82.6412 70.5109C82.6177 70.3637 82.5497 70.2272 82.4464 70.1198C82.44 70.1091 82.4315 70.0998 82.4215 70.0924C82.3319 70.0293 82.2577 69.9466 82.2045 69.8507C82.1514 69.7548 82.1206 69.6481 82.1145 69.5386C82.1145 69.331 82.1641 69.2226 82.4215 68.9737L82.4162 68.9659C82.49 68.8977 82.5489 68.8149 82.5891 68.7228C82.6294 68.6307 82.6502 68.5313 82.6501 68.4308Z" fill="white"/>
<path d="M87.1428 71.0814C87.0211 71.1677 86.9286 71.2891 86.8779 71.4294C86.8272 71.5697 86.8206 71.7222 86.8591 71.8664C86.8976 72.0105 86.9792 72.1394 87.0931 72.2358C87.207 72.3322 87.3476 72.3914 87.4962 72.4055C87.6447 72.4197 87.794 72.388 87.924 72.3148C88.054 72.2415 88.1584 72.1303 88.2234 71.996C88.2883 71.8616 88.3105 71.7106 88.2872 71.5633C88.2638 71.4159 88.1958 71.2793 88.0925 71.1717C88.0861 71.161 88.0777 71.1517 88.0678 71.1443C87.9781 71.0811 87.904 70.9985 87.8508 70.9026C87.7976 70.8066 87.7669 70.7 87.7608 70.5905C87.7579 70.5033 87.7747 70.4165 87.81 70.3367C87.8453 70.2569 87.8981 70.1861 87.9645 70.1295C88.0664 70.063 88.1501 69.9722 88.208 69.8652C88.2659 69.7583 88.2962 69.6385 88.2962 69.5169V69.4816C88.2963 69.3523 88.2621 69.2253 88.1969 69.1136C88.1318 69.0019 88.0381 68.9095 87.9255 68.846C87.8229 68.7311 87.7646 68.5834 87.7609 68.4293C87.7609 68.2217 87.8105 68.1133 88.0679 67.8644L88.0627 67.8566C88.1704 67.7565 88.2455 67.6262 88.278 67.4827C88.3104 67.3392 88.2988 67.1892 88.2447 67.0525C88.1905 66.9157 88.0964 66.7984 87.9745 66.7161C87.8526 66.6337 87.7086 66.59 87.5615 66.5908C87.4144 66.5916 87.271 66.6368 87.15 66.7205C87.0289 66.8041 86.936 66.9224 86.8833 67.0597C86.8306 67.1971 86.8207 67.3472 86.8547 67.4903C86.8887 67.6334 86.9651 67.763 87.074 67.8619L87.0713 67.8658C87.3286 68.113 87.3784 68.2224 87.3784 68.4308C87.3742 68.5813 87.318 68.7258 87.2195 68.8396C87.1029 68.9023 87.0055 68.9954 86.9376 69.109C86.8698 69.2227 86.834 69.3526 86.8342 69.4849V69.5188C86.8343 69.6445 86.8666 69.768 86.9282 69.8776C86.9897 69.9871 87.0783 70.079 87.1856 70.1445C87.2489 70.2002 87.2991 70.2693 87.3323 70.3468C87.3655 70.4243 87.381 70.5083 87.3776 70.5926C87.3732 70.6856 87.3502 70.7769 87.3098 70.8608C87.2695 70.9448 87.2127 71.0198 87.1428 71.0814Z" fill="white"/>
<path d="M89.3654 66.83C89.7737 66.83 90.1046 66.499 90.1046 66.0908C90.1046 65.6825 89.7737 65.3516 89.3654 65.3516C88.9572 65.3516 88.6262 65.6825 88.6262 66.0908C88.6262 66.499 88.9572 66.83 89.3654 66.83Z" fill="white"/>
<path d="M85.7622 66.83C86.1704 66.83 86.5014 66.499 86.5014 66.0908C86.5014 65.6825 86.1704 65.3516 85.7622 65.3516C85.3539 65.3516 85.0229 65.6825 85.0229 66.0908C85.0229 66.499 85.3539 66.83 85.7622 66.83Z" fill="white"/>
<path d="M84.2621 71.0836C84.192 71.0218 84.1351 70.9464 84.095 70.8619C84.0548 70.7775 84.0321 70.6858 84.0284 70.5924C84.0284 70.3846 84.078 70.2762 84.3354 70.0275L84.3303 70.0197C84.4381 69.9196 84.5131 69.7892 84.5456 69.6458C84.5781 69.5023 84.5665 69.3523 84.5123 69.2155C84.4582 69.0788 84.364 68.9615 84.2421 68.8791C84.1202 68.7968 83.9763 68.7531 83.8291 68.7539C83.682 68.7547 83.5386 68.7999 83.4176 68.8836C83.2966 68.9672 83.2036 69.0855 83.151 69.2228C83.0983 69.3602 83.0883 69.5103 83.1223 69.6534C83.1563 69.7965 83.2328 69.926 83.3416 70.025L83.339 70.0289C83.5964 70.2761 83.646 70.3855 83.646 70.5938C83.6422 70.6874 83.6194 70.7792 83.579 70.8637C83.5386 70.9481 83.4813 71.0234 83.4108 71.085C83.3153 71.1525 83.2373 71.2419 83.1834 71.3458C83.1296 71.4497 83.1014 71.5649 83.1013 71.6819V71.6923C83.1016 71.8194 83.1347 71.9442 83.1973 72.0548C83.2599 72.1653 83.3499 72.2579 83.4587 72.3235C83.5675 72.3891 83.6914 72.4256 83.8184 72.4294C83.9454 72.4332 84.0712 72.4042 84.1837 72.3452C84.2963 72.2862 84.3917 72.1992 84.4608 72.0926C84.5299 71.986 84.5704 71.8634 84.5783 71.7366C84.5862 71.6098 84.5613 71.4831 84.506 71.3687C84.4507 71.2543 84.3668 71.1561 84.2625 71.0836H84.2621Z" fill="white"/>
<path d="M85.7622 73.4091C86.1704 73.4091 86.5014 73.0781 86.5014 72.6699C86.5014 72.2616 86.1704 71.9307 85.7622 71.9307C85.3539 71.9307 85.0229 72.2616 85.0229 72.6699C85.0229 73.0781 85.3539 73.4091 85.7622 73.4091Z" fill="white"/>
<path d="M89.3754 73.4091C89.7837 73.4091 90.1146 73.0781 90.1146 72.6699C90.1146 72.2616 89.7837 71.9307 89.3754 71.9307C88.9672 71.9307 88.6362 72.2616 88.6362 72.6699C88.6362 73.0781 88.9672 73.4091 89.3754 73.4091Z" fill="white"/>
</g>
<path opacity="0.488" d="M22.4634 168.501L59.5348 146.962L67.7843 151.711L31.8065 173.849L22.4634 168.501Z" fill="url(#paint24_linear_2117_1113)"/>
<path d="M59.48 142.948L67.9271 147.75V151.744L59.48 146.942V142.948Z" fill="#D2CC23"/>
<path d="M59.48 137.501L67.9271 142.303V146.296L59.48 141.495V137.501Z" fill="#D2CC23"/>
<path d="M59.48 131.874L67.9271 136.676V140.669L59.48 135.868V131.874Z" fill="#D2CC23"/>
<path d="M59.48 126.245L67.9271 131.047V135.041L59.48 130.239V126.245Z" fill="#D2CC23"/>
<path opacity="0.772" d="M59.48 142.948L67.9271 147.75V151.744L59.48 146.942V142.948Z" fill="url(#paint25_linear_2117_1113)"/>
<path opacity="0.772" d="M59.48 137.501L67.9271 142.303V146.296L59.48 141.495V137.501Z" fill="url(#paint26_linear_2117_1113)"/>
<path opacity="0.772" d="M59.48 131.874L67.9271 136.676V140.669L59.48 135.868V131.874Z" fill="url(#paint27_linear_2117_1113)"/>
<path opacity="0.772" d="M59.48 126.245L67.9271 131.047V135.041L59.48 130.239V126.245Z" fill="url(#paint28_linear_2117_1113)"/>
<path opacity="0.488" d="M22.4634 168.501L59.5348 146.962L67.7843 151.711L31.8065 173.849L22.4634 168.501Z" fill="url(#paint29_linear_2117_1113)"/>
<g filter="url(#filter3_d_2117_1113)">
<path opacity="0.086" d="M79.9891 104.272C80.0406 104.325 85.0176 107.838 87.1772 107.717C88.0537 107.668 88.7988 107.567 90.2947 106.758C93.9501 104.781 97.5508 102.634 99.3071 101.705C100.329 102.064 100.267 102.026 100.267 102.026V114.256C100.267 114.256 120.453 102.508 112.142 107.055C103.828 111.602 120.74 102.752 120.74 102.752L121.079 89.9304L120.117 89.5773L127.965 84.9239C127.965 84.9239 130.46 83.7853 130.516 82.2894C130.572 80.7935 127.238 79.1116 127.238 79.1116L90.2947 57.623C90.2947 57.623 87.5934 55.5906 84.2883 57.623C73.9728 63.555 50.6013 76.8562 46.5982 79.1442C41.4536 82.0852 45.8855 84.6324 45.8855 84.6324C45.8855 84.6324 79.9128 104.195 79.9891 104.272Z" stroke="#48FFF1" stroke-width="0.465699" stroke-linecap="round"/>
</g>
<path d="M64.9213 88.0234L74.1724 93.4322L67.359 97.3674L58.1079 91.9589L64.9213 88.0234Z" fill="url(#paint30_linear_2117_1113)"/>
<path d="M68.6353 97.3682H67.3586V113.526L68.6353 112.69V97.3682Z" fill="url(#paint31_linear_2117_1113)"/>
<path d="M74.172 94.9847V93.4326L67.3586 97.3679V98.9199L74.172 94.9847Z" fill="url(#paint32_linear_2117_1113)"/>
<path d="M58.1079 91.959L67.3585 97.3679V113.526L58.1079 108.117V91.959Z" fill="url(#paint33_linear_2117_1113)"/>
<path d="M116.923 91.959L107.673 97.3679V113.526L116.924 108.117L116.923 91.959Z" fill="url(#paint34_linear_2117_1113)"/>
<path d="M110.109 88.0234L100.859 93.4322L107.672 97.3674L116.923 91.9587L110.109 88.0234Z" fill="url(#paint35_linear_2117_1113)"/>
<path d="M106.396 97.3682H107.673V113.526L106.396 112.69V97.3682Z" fill="url(#paint36_linear_2117_1113)"/>
<path d="M100.859 94.9847V93.4326L107.672 97.3679V98.9199L100.859 94.9847Z" fill="url(#paint37_linear_2117_1113)"/>
<path d="M106.679 64.2383L115.93 69.647L109.117 73.5823L99.8657 68.1737L106.679 64.2383Z" fill="url(#paint38_linear_2117_1113)"/>
<path d="M99.9487 69.7464V68.1943L109.214 73.4652V75.0172L99.9487 69.7464Z" fill="url(#paint39_linear_2117_1113)"/>
<path d="M109.211 75.0111V73.4591L115.928 69.6396V73.2838L114.268 72.3597L109.211 75.0111Z" fill="url(#paint40_linear_2117_1113)"/>
<path d="M67.4469 64.2373L58.1963 69.646L65.0096 73.5813L74.2607 68.1726L67.4469 64.2373Z" fill="url(#paint41_linear_2117_1113)"/>
<path d="M74.1748 69.7454V68.1934L64.9099 73.4642V75.0162L74.1748 69.7454Z" fill="url(#paint42_linear_2117_1113)"/>
<path d="M64.9129 75.0101V73.4581L58.1963 69.6387V73.7577L60.2658 72.4513L64.9129 75.0101Z" fill="url(#paint43_linear_2117_1113)"/>
<path opacity="0.21" d="M64.6655 70.0498L69.4316 67.4748L71.32 68.6551L66.554 71.2301L64.6655 70.0498Z" fill="url(#paint44_linear_2117_1113)"/>
<path opacity="0.21" d="M104.607 92.5625L109.373 89.9875L111.261 91.1678L106.495 93.7428L104.607 92.5625Z" fill="url(#paint45_linear_2117_1113)"/>
<path opacity="0.21" d="M71.2401 92.7394L66.0962 89.9002L64.25 91.1455L69.3939 93.9847L71.2401 92.7394Z" fill="url(#paint46_linear_2117_1113)"/>
<path opacity="0.21" d="M109.914 70.4093L104.771 67.5701L102.924 68.8154L108.068 71.6546L109.914 70.4093Z" fill="url(#paint47_linear_2117_1113)"/>
<path d="M83.6107 103.318L87.1365 101.315C87.2728 101.292 87.412 101.292 87.5482 101.315L91.0211 103.318C91.0593 103.34 91.0911 103.371 91.1132 103.409C91.1353 103.447 91.1469 103.49 91.1469 103.534C91.1469 103.578 91.1353 103.621 91.1132 103.659C91.0911 103.697 91.0593 103.729 91.0211 103.751L87.4418 105.807C87.4035 105.829 87.3601 105.841 87.3158 105.841C87.2715 105.841 87.228 105.829 87.1898 105.807L83.6107 103.751C83.571 103.73 83.5377 103.699 83.5145 103.661C83.4913 103.623 83.479 103.579 83.479 103.534C83.479 103.49 83.4913 103.446 83.5145 103.408C83.5377 103.37 83.571 103.339 83.6107 103.318Z" fill="url(#paint48_linear_2117_1113)"/>
<path d="M83.6107 103.318L87.0887 101.317C87.16 101.28 87.2393 101.261 87.3197 101.261C87.4001 101.261 87.4793 101.28 87.5507 101.317L91.0211 103.318C91.0593 103.34 91.0911 103.371 91.1132 103.409C91.1353 103.447 91.1469 103.491 91.1469 103.534C91.1469 103.578 91.1353 103.622 91.1132 103.66C91.0911 103.698 91.0593 103.729 91.0211 103.751L87.4418 105.807C87.4035 105.83 87.3601 105.841 87.3158 105.841C87.2715 105.841 87.228 105.83 87.1898 105.807L83.6107 103.751C83.571 103.73 83.5377 103.699 83.5145 103.661C83.4913 103.623 83.479 103.579 83.479 103.534C83.479 103.49 83.4913 103.446 83.5145 103.408C83.5377 103.37 83.571 103.339 83.6107 103.318Z" fill="url(#paint49_linear_2117_1113)"/>
<path opacity="0.399" d="M91.143 103.569C91.1488 103.693 90.9858 103.772 90.9858 103.772C90.9858 103.772 90.3882 104.115 89.6837 104.521C88.8042 105.027 87.753 105.631 87.5783 105.732C87.5003 105.786 87.408 105.814 87.3134 105.814C87.2189 105.814 87.1266 105.786 87.0486 105.732L83.5606 103.716C83.5606 103.716 83.4841 103.684 83.4814 103.547" stroke="white" stroke-width="0.465699" stroke-linecap="round" stroke-linejoin="round"/>
<path d="M84.5673 103.38L87.2155 101.904C87.2438 101.888 87.276 101.879 87.3087 101.879C87.3415 101.879 87.3737 101.888 87.4019 101.904L90.0502 103.38C90.0785 103.396 90.102 103.42 90.1184 103.448C90.1348 103.476 90.1434 103.508 90.1434 103.54C90.1434 103.573 90.1348 103.605 90.1184 103.633C90.102 103.661 90.0785 103.684 90.0502 103.7L87.4019 105.222C87.3737 105.239 87.3415 105.248 87.3087 105.248C87.276 105.248 87.2438 105.239 87.2155 105.222L84.5673 103.7C84.538 103.685 84.5134 103.662 84.4962 103.634C84.479 103.606 84.47 103.573 84.47 103.54C84.47 103.507 84.479 103.475 84.4962 103.447C84.5134 103.418 84.538 103.396 84.5673 103.38Z" fill="url(#paint50_linear_2117_1113)"/>
<path d="M46.9371 82.0768L50.4629 80.074C50.5992 80.0508 50.7384 80.0508 50.8746 80.074L54.3475 82.0768C54.3857 82.0985 54.4175 82.13 54.4396 82.168C54.4617 82.206 54.4734 82.2491 54.4734 82.2931C54.4734 82.337 54.4617 82.3802 54.4396 82.4182C54.4175 82.4562 54.3857 82.4876 54.3475 82.5093L50.7682 84.5658C50.73 84.5882 50.6865 84.5999 50.6422 84.5999C50.5979 84.5999 50.5544 84.5882 50.5162 84.5658L46.9371 82.5093C46.8974 82.4888 46.8641 82.4578 46.8409 82.4197C46.8177 82.3815 46.8054 82.3377 46.8054 82.2931C46.8054 82.2484 46.8177 82.2046 46.8409 82.1665C46.8641 82.1283 46.8974 82.0973 46.9371 82.0768Z" fill="url(#paint51_linear_2117_1113)"/>
<path d="M46.9371 82.077L50.4151 80.076C50.4864 80.0389 50.5657 80.0195 50.6461 80.0195C50.7265 80.0195 50.8057 80.0389 50.8771 80.076L54.3475 82.077C54.3857 82.0987 54.4175 82.1302 54.4396 82.1681C54.4617 82.2061 54.4734 82.2493 54.4734 82.2933C54.4734 82.3372 54.4617 82.3804 54.4396 82.4184C54.4175 82.4564 54.3857 82.4878 54.3475 82.5095L50.7682 84.566C50.73 84.5883 50.6865 84.6001 50.6422 84.6001C50.5979 84.6001 50.5544 84.5883 50.5162 84.566L46.9371 82.5095C46.8974 82.489 46.8641 82.458 46.8409 82.4199C46.8177 82.3817 46.8054 82.3379 46.8054 82.2933C46.8054 82.2486 46.8177 82.2048 46.8409 82.1667C46.8641 82.1285 46.8974 82.0975 46.9371 82.077Z" fill="url(#paint52_linear_2117_1113)"/>
<path opacity="0.399" d="M54.4697 82.3279C54.4755 82.4515 54.3124 82.5306 54.3124 82.5306C54.3124 82.5306 53.7148 82.8736 53.0104 83.2797C52.1308 83.7855 51.0797 84.39 50.9049 84.4911C50.827 84.5446 50.7346 84.5732 50.6401 84.5732C50.5456 84.5732 50.4532 84.5446 50.3753 84.4911L46.8872 82.4745C46.8872 82.4745 46.8108 82.443 46.8081 82.3057" stroke="white" stroke-width="0.465699" stroke-linecap="round" stroke-linejoin="round"/>
<path d="M47.8939 82.1381L50.5422 80.662C50.5704 80.6454 50.6026 80.6367 50.6354 80.6367C50.6681 80.6367 50.7003 80.6454 50.7286 80.662L53.3768 82.1381C53.4051 82.1542 53.4287 82.1774 53.4451 82.2055C53.4614 82.2337 53.4701 82.2656 53.4701 82.2982C53.4701 82.3307 53.4614 82.3627 53.4451 82.3908C53.4287 82.4189 53.4051 82.4422 53.3768 82.4582L50.7286 83.98C50.7003 83.9966 50.6681 84.0053 50.6354 84.0053C50.6026 84.0053 50.5704 83.9966 50.5422 83.98L47.8939 82.4582C47.8646 82.443 47.84 82.42 47.8229 82.3918C47.8057 82.3636 47.7966 82.3312 47.7966 82.2982C47.7966 82.2651 47.8057 82.2327 47.8229 82.2045C47.84 82.1763 47.8646 82.1533 47.8939 82.1381Z" fill="url(#paint53_linear_2117_1113)"/>
<path d="M120.101 82.0768L123.627 80.074C123.763 80.0508 123.902 80.0508 124.039 80.074L127.512 82.0768C127.55 82.0985 127.582 82.13 127.604 82.168C127.626 82.206 127.637 82.2491 127.637 82.2931C127.637 82.337 127.626 82.3802 127.604 82.4182C127.582 82.4562 127.55 82.4876 127.512 82.5093L123.932 84.5658C123.894 84.5882 123.851 84.5999 123.806 84.5999C123.762 84.5999 123.719 84.5882 123.68 84.5658L120.101 82.5093C120.061 82.4888 120.028 82.4578 120.005 82.4197C119.982 82.3815 119.969 82.3377 119.969 82.2931C119.969 82.2484 119.982 82.2046 120.005 82.1665C120.028 82.1283 120.061 82.0973 120.101 82.0768Z" fill="url(#paint54_linear_2117_1113)"/>
<path d="M120.101 82.077L123.579 80.076C123.65 80.0389 123.73 80.0195 123.81 80.0195C123.891 80.0195 123.97 80.0389 124.041 80.076L127.512 82.077C127.55 82.0987 127.582 82.1302 127.604 82.1681C127.626 82.2061 127.637 82.2493 127.637 82.2933C127.637 82.3372 127.626 82.3804 127.604 82.4184C127.582 82.4564 127.55 82.4878 127.512 82.5095L123.932 84.566C123.894 84.5883 123.851 84.6001 123.806 84.6001C123.762 84.6001 123.719 84.5883 123.68 84.566L120.101 82.5095C120.061 82.489 120.028 82.458 120.005 82.4199C119.982 82.3817 119.969 82.3379 119.969 82.2933C119.969 82.2486 119.982 82.2048 120.005 82.1667C120.028 82.1285 120.061 82.0975 120.101 82.077Z" fill="url(#paint55_linear_2117_1113)"/>
<path opacity="0.399" d="M127.634 82.3279C127.64 82.4515 127.476 82.5306 127.476 82.5306C127.476 82.5306 126.879 82.8736 126.174 83.2797C125.295 83.7855 124.244 84.39 124.069 84.4911C123.991 84.5446 123.899 84.5732 123.804 84.5732C123.71 84.5732 123.617 84.5446 123.539 84.4911L120.051 82.4745C120.051 82.4745 119.975 82.443 119.972 82.3057" stroke="white" stroke-width="0.465699" stroke-linecap="round" stroke-linejoin="round"/>
<path d="M121.058 82.1391L123.706 80.663C123.734 80.6464 123.766 80.6377 123.799 80.6377C123.832 80.6377 123.864 80.6464 123.892 80.663L126.541 82.1391C126.569 82.1551 126.592 82.1784 126.609 82.2065C126.625 82.2346 126.634 82.2666 126.634 82.2991C126.634 82.3317 126.625 82.3636 126.609 82.3917C126.592 82.4199 126.569 82.4431 126.541 82.4592L123.892 83.981C123.864 83.9976 123.832 84.0063 123.799 84.0063C123.766 84.0063 123.734 83.9976 123.706 83.981L121.058 82.4592C121.028 82.444 121.004 82.421 120.987 82.3928C120.97 82.3646 120.96 82.3322 120.96 82.2991C120.96 82.2661 120.97 82.2337 120.987 82.2055C121.004 82.1773 121.028 82.1543 121.058 82.1391Z" fill="url(#paint56_linear_2117_1113)"/>
<path d="M85.7822 103.384L87.2409 102.554C87.2973 102.544 87.3549 102.544 87.4112 102.554L88.8478 103.384C88.8636 103.393 88.8768 103.406 88.886 103.422C88.8951 103.437 88.8999 103.455 88.8999 103.473C88.8999 103.492 88.8951 103.509 88.886 103.525C88.8768 103.541 88.8636 103.554 88.8478 103.563L87.3671 104.413C87.3513 104.422 87.3333 104.427 87.315 104.427C87.2967 104.427 87.2787 104.422 87.2629 104.413L85.7822 103.562C85.766 103.554 85.7523 103.541 85.7428 103.525C85.7333 103.509 85.7283 103.491 85.7283 103.473C85.7283 103.455 85.7333 103.437 85.7428 103.421C85.7523 103.405 85.766 103.392 85.7822 103.384Z" fill="url(#paint57_linear_2117_1113)"/>
<path d="M85.7827 103.383L87.2216 102.556C87.2511 102.54 87.2839 102.532 87.3172 102.532C87.3505 102.532 87.3833 102.54 87.4128 102.556L88.8483 103.383C88.8641 103.392 88.8773 103.405 88.8865 103.421C88.8956 103.437 88.9004 103.455 88.9004 103.473C88.9004 103.491 88.8956 103.509 88.8865 103.525C88.8773 103.54 88.8641 103.553 88.8483 103.562L87.3676 104.413C87.3518 104.422 87.3338 104.427 87.3155 104.427C87.2972 104.427 87.2793 104.422 87.2635 104.413L85.7827 103.562C85.7663 103.554 85.7526 103.541 85.743 103.525C85.7334 103.509 85.7283 103.491 85.7283 103.473C85.7283 103.454 85.7334 103.436 85.743 103.42C85.7526 103.405 85.7663 103.392 85.7827 103.383Z" fill="url(#paint58_linear_2117_1113)"/>
<path opacity="0.399" d="M88.8975 103.488C88.8996 103.54 88.8325 103.572 88.8325 103.572C88.8325 103.572 88.5861 103.713 88.293 103.882C87.9295 104.091 87.4949 104.341 87.4231 104.383C87.3907 104.406 87.3523 104.417 87.3131 104.417C87.2738 104.417 87.2354 104.406 87.2031 104.383L85.7603 103.549C85.7603 103.549 85.729 103.536 85.7283 103.479" stroke="white" stroke-width="0.465699" stroke-linecap="round" stroke-linejoin="round"/>
<path d="M86.1761 103.408L87.2724 102.798C87.2841 102.791 87.2975 102.787 87.311 102.787C87.3246 102.787 87.3379 102.791 87.3496 102.798L88.4454 103.408C88.4571 103.415 88.4669 103.425 88.4737 103.436C88.4804 103.448 88.484 103.461 88.484 103.474C88.484 103.488 88.4804 103.501 88.4737 103.513C88.4669 103.524 88.4571 103.534 88.4454 103.541L87.3496 104.17C87.3379 104.177 87.3246 104.181 87.311 104.181C87.2975 104.181 87.2841 104.177 87.2724 104.17L86.1761 103.541C86.1639 103.534 86.1537 103.525 86.1466 103.513C86.1395 103.502 86.1357 103.488 86.1357 103.474C86.1357 103.461 86.1395 103.447 86.1466 103.436C86.1537 103.424 86.1639 103.415 86.1761 103.408Z" fill="url(#paint59_linear_2117_1113)"/>
<path d="M122.273 82.1417L123.732 81.3119C123.788 81.3023 123.846 81.3023 123.902 81.3119L125.339 82.1417C125.355 82.1506 125.368 82.1637 125.377 82.1794C125.386 82.1951 125.391 82.213 125.391 82.2312C125.391 82.2494 125.386 82.2672 125.377 82.283C125.368 82.2987 125.355 82.3117 125.339 82.3207L123.858 83.1706C123.842 83.1798 123.824 83.1847 123.806 83.1847C123.788 83.1847 123.77 83.1798 123.754 83.1706L122.273 82.32C122.257 82.3115 122.243 82.2986 122.234 82.2829C122.224 82.2672 122.219 82.2492 122.219 82.2308C122.219 82.2125 122.224 82.1944 122.234 82.1787C122.243 82.163 122.257 82.1502 122.273 82.1417Z" fill="url(#paint60_linear_2117_1113)"/>
<path d="M122.274 82.1412L123.713 81.3134C123.742 81.2981 123.775 81.29 123.808 81.29C123.841 81.29 123.874 81.2981 123.904 81.3134L125.339 82.1412C125.355 82.1502 125.368 82.1632 125.377 82.179C125.387 82.1947 125.391 82.2126 125.391 82.2307C125.391 82.2489 125.387 82.2668 125.377 82.2825C125.368 82.2983 125.355 82.3113 125.339 82.3203L123.859 83.1709C123.843 83.1801 123.825 83.185 123.807 83.185C123.788 83.185 123.77 83.1801 123.754 83.1709L122.274 82.3201C122.257 82.3116 122.244 82.2988 122.234 82.283C122.224 82.2672 122.219 82.2491 122.219 82.2307C122.219 82.2122 122.224 82.1941 122.234 82.1783C122.244 82.1625 122.257 82.1497 122.274 82.1412Z" fill="url(#paint61_linear_2117_1113)"/>
<path opacity="0.399" d="M125.388 82.2462C125.391 82.2974 125.323 82.3299 125.323 82.3299C125.323 82.3299 125.077 82.4711 124.784 82.6397C124.42 82.8491 123.986 83.0988 123.914 83.1411C123.882 83.1634 123.843 83.1753 123.804 83.1753C123.765 83.1753 123.726 83.1634 123.694 83.1411L122.251 82.307C122.251 82.307 122.22 82.2939 122.219 82.2363" stroke="white" stroke-width="0.465699" stroke-linecap="round" stroke-linejoin="round"/>
<path d="M122.67 82.1661L123.766 81.5554C123.778 81.5485 123.791 81.5449 123.805 81.5449C123.818 81.5449 123.832 81.5485 123.843 81.5554L124.939 82.1661C124.951 82.1727 124.961 82.1823 124.967 82.194C124.974 82.2056 124.978 82.2188 124.978 82.2323C124.978 82.2457 124.974 82.259 124.967 82.2706C124.961 82.2822 124.951 82.2919 124.939 82.2985L123.843 82.9281C123.832 82.9349 123.818 82.9385 123.805 82.9385C123.791 82.9385 123.778 82.9349 123.766 82.9281L122.67 82.2985C122.658 82.2922 122.647 82.2827 122.64 82.271C122.633 82.2594 122.629 82.246 122.629 82.2323C122.629 82.2186 122.633 82.2052 122.64 82.1935C122.647 82.1818 122.658 82.1723 122.67 82.1661Z" fill="url(#paint62_linear_2117_1113)"/>
<path d="M49.1065 82.1417L50.5651 81.3119C50.6215 81.3023 50.6791 81.3023 50.7355 81.3119L52.172 82.1417C52.1879 82.1506 52.201 82.1637 52.2102 82.1794C52.2193 82.1951 52.2241 82.213 52.2241 82.2312C52.2241 82.2494 52.2193 82.2672 52.2102 82.283C52.201 82.2987 52.1879 82.3117 52.172 82.3207L50.6913 83.1706C50.6755 83.1798 50.6576 83.1847 50.6392 83.1847C50.6209 83.1847 50.603 83.1798 50.5872 83.1706L49.1065 82.32C49.0902 82.3115 49.0765 82.2986 49.067 82.2829C49.0575 82.2672 49.0525 82.2492 49.0525 82.2308C49.0525 82.2125 49.0575 82.1944 49.067 82.1787C49.0765 82.163 49.0902 82.1502 49.1065 82.1417Z" fill="url(#paint63_linear_2117_1113)"/>
<path d="M49.107 82.1412L50.5458 81.3134C50.5754 81.2981 50.6082 81.29 50.6414 81.29C50.6747 81.29 50.7075 81.2981 50.737 81.3134L52.1725 82.1412C52.1884 82.1502 52.2015 82.1632 52.2107 82.179C52.2198 82.1947 52.2247 82.2126 52.2247 82.2307C52.2247 82.2489 52.2198 82.2668 52.2107 82.2825C52.2015 82.2983 52.1884 82.3113 52.1725 82.3203L50.6918 83.1709C50.676 83.1801 50.6581 83.185 50.6398 83.185C50.6214 83.185 50.6035 83.1801 50.5877 83.1709L49.107 82.3201C49.0906 82.3116 49.0768 82.2988 49.0672 82.283C49.0576 82.2672 49.0525 82.2491 49.0525 82.2307C49.0525 82.2122 49.0576 82.1941 49.0672 82.1783C49.0768 82.1625 49.0906 82.1497 49.107 82.1412Z" fill="url(#paint64_linear_2117_1113)"/>
<path opacity="0.399" d="M52.2217 82.2462C52.2239 82.2974 52.1567 82.3299 52.1567 82.3299C52.1567 82.3299 51.9103 82.4711 51.6173 82.6397C51.2538 82.8491 50.8191 83.0988 50.7473 83.1411C50.7149 83.1634 50.6766 83.1753 50.6373 83.1753C50.598 83.1753 50.5597 83.1634 50.5273 83.1411L49.0846 82.307C49.0846 82.307 49.0532 82.2939 49.0525 82.2363" stroke="white" stroke-width="0.465699" stroke-linecap="round" stroke-linejoin="round"/>
<path d="M49.5003 82.1661L50.5967 81.5554C50.6084 81.5485 50.6217 81.5449 50.6352 81.5449C50.6488 81.5449 50.6621 81.5485 50.6738 81.5554L51.7696 82.1661C51.7814 82.1727 51.7911 82.1823 51.7979 82.194C51.8047 82.2056 51.8082 82.2188 51.8082 82.2323C51.8082 82.2457 51.8047 82.259 51.7979 82.2706C51.7911 82.2822 51.7814 82.2919 51.7696 82.2985L50.6738 82.9281C50.6621 82.9349 50.6488 82.9385 50.6352 82.9385C50.6217 82.9385 50.6084 82.9349 50.5967 82.9281L49.5003 82.2985C49.4881 82.2922 49.478 82.2827 49.4708 82.271C49.4637 82.2594 49.46 82.246 49.46 82.2323C49.46 82.2186 49.4637 82.2052 49.4708 82.1935C49.478 82.1818 49.4881 82.1723 49.5003 82.1661Z" fill="url(#paint65_linear_2117_1113)"/>
<path d="M103.62 142.621L120.821 132.686C121.531 132.278 121.637 132.178 121.629 133.544V141.901C121.626 142.94 121.578 142.972 120.821 143.417L103.472 153.425C103.244 153.586 102.938 153.76 102.913 153.046V143.793C102.913 143.29 102.829 143.066 103.62 142.621Z" fill="url(#paint66_linear_2117_1113)"/>
<path d="M103.502 142.746L116.322 135.342C116.851 135.039 116.93 134.964 116.924 135.982V142.21C116.922 142.984 116.886 143.008 116.322 143.34L103.393 150.798C103.222 150.918 102.994 151.048 102.976 150.516V143.62C102.976 143.245 102.913 143.078 103.502 142.746Z" fill="url(#paint67_linear_2117_1113)"/>
<path d="M103.62 128.823L120.821 118.888C121.531 118.48 121.637 118.381 121.629 119.746V128.103C121.626 129.142 121.578 129.174 120.821 129.619L103.472 139.627C103.244 139.788 102.938 139.963 102.913 139.249V129.995C102.913 129.492 102.829 129.268 103.62 128.823Z" fill="url(#paint68_linear_2117_1113)"/>
<path d="M103.502 128.948L116.322 121.543C116.851 121.24 116.93 121.165 116.924 122.183V128.411C116.922 129.185 116.886 129.209 116.322 129.541L103.393 137C103.222 137.119 102.994 137.249 102.976 136.717V129.821C102.976 129.447 102.913 129.279 103.502 128.948Z" fill="url(#paint69_linear_2117_1113)"/>
<path d="M103.326 128.952L111.868 124.019C112.22 123.816 112.273 123.767 112.269 124.445V128.594C112.268 129.11 112.244 129.126 111.868 129.347L103.252 134.316C103.139 134.396 102.988 134.483 102.975 134.128V129.534C102.975 129.285 102.934 129.173 103.326 128.952Z" fill="url(#paint70_linear_2117_1113)"/>
<path d="M103.326 142.751L111.868 137.817C112.22 137.615 112.273 137.566 112.269 138.244V142.393C112.268 142.909 112.244 142.925 111.868 143.145L103.252 148.115C103.139 148.195 102.988 148.282 102.975 147.927V143.333C102.975 143.083 102.934 142.972 103.326 142.751Z" fill="url(#paint71_linear_2117_1113)"/>
<path d="M103.681 128.861L120.823 118.96C121.529 118.554 121.635 118.455 121.628 119.816V128.144C121.626 129.179 121.577 129.211 120.823 129.654L103.534 139.629C103.306 139.789 103.001 139.963 102.976 139.252V130.03C102.976 129.528 102.893 129.304 103.681 128.861Z" stroke="#312FB7" stroke-width="0.465699"/>
<path d="M103.681 135.944L120.823 126.042C121.529 125.636 121.635 125.537 121.628 126.898V135.226C121.626 136.261 121.577 136.293 120.823 136.736L103.534 146.711C103.306 146.871 103.001 147.045 102.976 146.334V137.112C102.976 136.61 102.893 136.386 103.681 135.944Z" stroke="#2F3E4F" stroke-width="0.465699"/>
<path d="M103.681 131.947L120.823 122.046C121.529 121.64 121.635 121.541 121.628 122.902V131.23C121.626 132.265 121.577 132.297 120.823 132.74L103.534 142.715C103.306 142.875 103.001 143.049 102.976 142.338V133.115C102.976 132.614 102.893 132.39 103.681 131.947Z" stroke="#2F3E4F" stroke-width="0.465699"/>
<path d="M103.681 139.573L120.823 129.672C121.529 129.266 121.635 129.167 121.628 130.528V138.856C121.626 139.891 121.577 139.923 120.823 140.366L103.534 150.341C103.306 150.501 103.001 150.675 102.976 149.964V140.741C102.976 140.24 102.893 140.016 103.681 139.573Z" stroke="#2F3E4F" stroke-width="0.465699"/>
<path d="M103.681 142.659L120.823 132.758C121.529 132.352 121.635 132.253 121.628 133.614V141.942C121.626 142.977 121.577 143.009 120.823 143.452L103.534 153.427C103.306 153.587 103.001 153.761 102.976 153.05V143.827C102.976 143.326 102.893 143.102 103.681 142.659Z" stroke="#21828F" stroke-width="0.931398"/>
<path d="M103.681 128.861L120.823 118.96C121.529 118.554 121.635 118.455 121.628 119.816V128.144C121.626 129.179 121.577 129.211 120.823 129.654L103.534 139.629C103.306 139.789 103.001 139.963 102.976 139.252V130.03C102.976 129.528 102.893 129.304 103.681 128.861Z" stroke="#21828F" stroke-width="0.931398"/>
<path opacity="0.69" d="M41.2066 148.204C41.0688 148.263 40.9414 148.344 40.8291 148.444C40.8031 148.448 40.779 148.46 40.7604 148.478L24.289 138.939C24.0794 138.816 23.9056 138.641 23.7851 138.43C23.6647 138.219 23.6018 137.98 23.6028 137.737C23.6102 137.497 23.6767 137.261 23.7963 137.052C23.916 136.842 24.0852 136.666 24.289 136.537L27.8929 134.478C28.0728 134.581 28.2703 134.651 28.4755 134.683L24.5293 136.983C24.3964 137.06 24.2855 137.169 24.2074 137.302C24.1292 137.434 24.0865 137.584 24.0832 137.737C24.086 137.896 24.1283 138.051 24.2062 138.189C24.2841 138.326 24.3952 138.443 24.5293 138.527L41.2066 148.204Z" fill="#DDFF39"/>
<path opacity="0.69" d="M44.6371 149.028C44.6371 149.646 43.7106 150.126 42.5782 150.126C41.4458 150.126 40.5193 149.645 40.5193 149.028C40.5218 148.926 40.5479 148.827 40.5956 148.738C40.6432 148.648 40.7111 148.571 40.7938 148.512L40.8625 148.444C40.9832 148.356 41.1093 148.276 41.24 148.203C41.2742 148.203 41.3086 148.169 41.3429 148.169C41.7475 148.011 42.1782 147.93 42.6126 147.93C43.7106 147.93 44.6371 148.41 44.6371 149.028Z" fill="#DDFF39"/>
<path opacity="0.69" d="M31.4619 133.723C31.4619 134.34 30.5353 134.821 29.3685 134.821C29.068 134.822 28.7685 134.788 28.4763 134.718C28.2704 134.649 28.0645 134.581 27.8936 134.512C27.5162 134.306 27.311 134.032 27.311 133.757C27.311 133.139 28.2376 132.659 29.3699 132.659C30.5353 132.624 31.4619 133.139 31.4619 133.723Z" fill="#DDFF39"/>
<path opacity="0.643" d="M27.3774 129.296V133.482C27.3774 134.634 29.4021 134.683 29.4021 134.683C29.4021 134.683 31.4267 134.736 31.4267 133.482V127.854" fill="url(#paint72_linear_2117_1113)"/>
<path opacity="0.643" d="M40.522 144.635V148.821C40.522 150.051 42.5809 149.988 42.5809 149.988C42.5809 149.988 44.6055 150.028 44.6055 148.821V143.193" fill="url(#paint73_linear_2117_1113)"/>
<g opacity="0.266">
<path opacity="0.69" d="M41.2066 143.26C41.0688 143.32 40.9414 143.401 40.8291 143.501C40.8031 143.504 40.779 143.516 40.7604 143.535L24.289 133.995C24.0794 133.873 23.9056 133.697 23.7851 133.487C23.6647 133.276 23.6018 133.037 23.6028 132.794C23.6102 132.553 23.6767 132.318 23.7963 132.108C23.916 131.899 24.0852 131.722 24.289 131.594L27.8929 129.534C28.0728 129.638 28.2703 129.708 28.4755 129.74L24.5293 132.039C24.3964 132.116 24.2855 132.226 24.2074 132.358C24.1292 132.49 24.0865 132.641 24.0832 132.794C24.086 132.952 24.1283 133.107 24.2062 133.245C24.2841 133.383 24.3952 133.499 24.5293 133.583L41.2066 143.26Z" fill="#DDFF39"/>
<path opacity="0.69" d="M44.6371 144.084C44.6371 144.702 43.7106 145.183 42.5782 145.183C41.4458 145.183 40.5193 144.702 40.5193 144.084C40.5218 143.983 40.5479 143.884 40.5956 143.794C40.6432 143.705 40.7111 143.628 40.7938 143.569L40.8625 143.5C40.9832 143.412 41.1093 143.332 41.24 143.26C41.2742 143.26 41.3086 143.226 41.3429 143.226C41.7475 143.068 42.1782 142.986 42.6126 142.986C43.7106 142.986 44.6371 143.467 44.6371 144.084Z" fill="#DDFF39"/>
<path opacity="0.69" d="M31.4619 128.779C31.4619 129.397 30.5353 129.877 29.3685 129.877C29.068 129.879 28.7685 129.844 28.4763 129.774C28.2704 129.706 28.0645 129.637 27.8936 129.569C27.5162 129.363 27.311 129.088 27.311 128.814C27.311 128.196 28.2376 127.716 29.3699 127.716C30.5353 127.681 31.4619 128.196 31.4619 128.779Z" fill="#DDFF39"/>
<path opacity="0.643" d="M27.3774 124.352V128.539C27.3774 129.69 29.4021 129.739 29.4021 129.739C29.4021 129.739 31.4267 129.792 31.4267 128.539V122.911" fill="url(#paint74_linear_2117_1113)"/>
<path opacity="0.643" d="M40.522 139.869V144.056C40.522 145.285 42.5809 145.222 42.5809 145.222C42.5809 145.222 44.6055 145.262 44.6055 144.056V138.428" fill="url(#paint75_linear_2117_1113)"/>
</g>
<path opacity="0.69" d="M98.8873 168.447C98.8873 168.447 98.5598 168.787 99.5795 168.853C99.6166 168.853 134.805 148.366 152.585 138.826C153.029 138.586 153.326 138.252 153.326 137.737C153.315 137.49 153.241 137.251 153.111 137.041C152.981 136.831 152.8 136.657 152.585 136.536L148.696 134.478C148.499 134.582 148.286 134.652 148.066 134.683L152.326 136.983C152.466 137.054 152.584 137.162 152.669 137.295C152.754 137.427 152.801 137.58 152.807 137.737C152.807 138.046 152.622 138.208 152.326 138.379L98.8873 168.447Z" fill="#DDFF39"/>
<path opacity="0.69" d="M130.622 149.38C130.622 149.998 131.622 150.478 132.844 150.478C134.067 150.478 135.067 149.998 135.067 149.38C135.063 149.277 135.034 149.176 134.982 149.086C134.931 148.996 134.858 148.92 134.771 148.865L134.697 148.796C134.566 148.708 134.43 148.628 134.289 148.556C134.252 148.556 134.215 148.522 134.178 148.522C133.738 148.363 133.275 148.282 132.807 148.282C131.622 148.282 130.622 148.763 130.622 149.38Z" fill="#DDFF39"/>
<path opacity="0.69" d="M144.843 133.723C144.843 134.34 145.843 134.821 147.103 134.821C147.426 134.822 147.749 134.788 148.066 134.718C148.288 134.649 148.51 134.581 148.695 134.512C149.103 134.306 149.325 134.032 149.325 133.757C149.325 133.139 148.325 132.659 147.103 132.659C145.843 132.624 144.843 133.139 144.843 133.723Z" fill="#DDFF39"/>
<path opacity="0.69" d="M95.6633 169.507C95.6633 170.125 96.6635 170.605 97.8859 170.605C99.1083 170.605 100.108 170.125 100.108 169.507C100.105 169.404 100.075 169.303 100.024 169.213C99.9723 169.123 99.8996 169.047 99.8122 168.992L99.7381 168.923C99.6071 168.835 99.4711 168.755 99.3306 168.683C99.2935 168.683 99.2564 168.649 99.2195 168.649C98.78 168.49 98.3162 168.409 97.8488 168.409C96.6635 168.409 95.6633 168.89 95.6633 169.507Z" fill="#DDFF39"/>
<path opacity="0.231" d="M95.6633 163.681C95.6633 164.299 96.6635 164.779 97.8859 164.779C99.1083 164.779 100.108 164.299 100.108 163.681C100.105 163.578 100.075 163.477 100.024 163.387C99.9723 163.297 99.8996 163.221 99.8122 163.166L99.7381 163.097C99.6071 163.009 99.4711 162.929 99.3306 162.857C99.2935 162.857 99.2564 162.822 99.2195 162.822C98.78 162.664 98.3162 162.583 97.8488 162.583C96.6635 162.583 95.6633 163.063 95.6633 163.681Z" fill="#DDFF39"/>
<path opacity="0.643" d="M149.251 129.296V133.482C149.251 134.634 147.065 134.683 147.065 134.683C147.065 134.683 144.88 134.737 144.88 133.482V127.854" fill="url(#paint76_linear_2117_1113)"/>
<path opacity="0.643" d="M135.064 145.165V149.351C135.064 150.581 132.842 150.518 132.842 150.518C132.842 150.518 130.656 150.558 130.656 149.351V143.724" fill="url(#paint77_linear_2117_1113)"/>
<g opacity="0.266">
<path opacity="0.69" d="M99.0393 162.75C99.0887 162.913 99.3673 162.978 99.769 163.152C100.171 163.326 152.588 133.996 152.588 133.996C152.809 133.882 152.995 133.71 153.126 133.499C153.256 133.287 153.327 133.044 153.33 132.796C153.318 132.549 153.244 132.309 153.114 132.099C152.985 131.889 152.804 131.716 152.588 131.595L148.699 129.535C148.503 129.64 148.29 129.709 148.069 129.741L152.329 132.04C152.469 132.112 152.588 132.22 152.673 132.352C152.757 132.485 152.805 132.638 152.811 132.795C152.806 132.957 152.758 133.115 152.674 133.253C152.59 133.391 152.471 133.506 152.329 133.584L99.0393 162.75Z" fill="#DDFF39"/>
<path opacity="0.69" d="M130.624 144.791C130.624 145.408 131.624 145.889 132.846 145.889C134.069 145.889 135.069 145.408 135.069 144.791C135.065 144.687 135.036 144.586 134.984 144.496C134.933 144.406 134.86 144.331 134.773 144.275L134.699 144.206C134.568 144.118 134.432 144.038 134.291 143.966C134.254 143.966 134.217 143.932 134.18 143.932C133.74 143.773 133.277 143.692 132.809 143.692C131.624 143.692 130.624 144.173 130.624 144.791Z" fill="#DDFF39"/>
<path opacity="0.69" d="M144.845 128.78C144.845 129.398 145.845 129.878 147.105 129.878C147.429 129.88 147.752 129.845 148.068 129.775C148.29 129.707 148.512 129.638 148.698 129.57C149.105 129.364 149.327 129.089 149.327 128.815C149.327 128.197 148.327 127.716 147.105 127.716C145.845 127.682 144.845 128.197 144.845 128.78Z" fill="#DDFF39"/>
<path opacity="0.643" d="M149.254 124.352V128.539C149.254 129.69 147.069 129.739 147.069 129.739C147.069 129.739 144.883 129.793 144.883 128.539V122.911" fill="url(#paint78_linear_2117_1113)"/>
<path opacity="0.643" d="M135.068 140.397V144.584C135.068 145.814 132.845 145.751 132.845 145.751C132.845 145.751 130.66 145.791 130.66 144.584V138.956" fill="url(#paint79_linear_2117_1113)"/>
</g>
<path opacity="0.643" d="M100.109 165.293V169.479C100.109 170.709 97.8862 170.646 97.8862 170.646C97.8862 170.646 95.7007 170.686 95.7007 169.479V163.852" fill="url(#paint80_linear_2117_1113)"/>
<path opacity="0.209" d="M100.109 159.465V163.651C100.109 164.881 97.8862 164.818 97.8862 164.818C97.8862 164.818 95.7007 164.858 95.7007 163.651V158.023" fill="url(#paint81_linear_2117_1113)"/>
<path opacity="0.69" d="M41.2061 143.262C41.0683 143.322 40.9409 143.403 40.8286 143.503C40.8026 143.506 40.7785 143.518 40.76 143.537L32.5245 138.767L24.2885 133.997C24.0789 133.875 23.9051 133.699 23.7846 133.488C23.6642 133.278 23.6013 133.039 23.6023 132.796C23.6097 132.555 23.6762 132.32 23.7958 132.11C23.9155 131.901 24.0847 131.724 24.2885 131.596L27.8924 129.536C28.0723 129.64 28.2698 129.71 28.475 129.742L24.5288 132.041C24.3959 132.118 24.285 132.228 24.2069 132.36C24.1288 132.492 24.086 132.643 24.0827 132.796C24.0855 132.954 24.1278 133.109 24.2057 133.247C24.2836 133.385 24.3947 133.501 24.5288 133.585L41.2061 143.262Z" fill="#DDFF39"/>
<path opacity="0.69" d="M65.1178 161.742C65.1178 162.36 64.1913 162.84 63.0589 162.84C61.9265 162.84 61 162.359 61 161.742C61.0025 161.64 61.0286 161.541 61.0763 161.451C61.1239 161.362 61.1918 161.285 61.2745 161.226L61.3432 161.157C61.464 161.07 61.59 160.989 61.7207 160.917C61.7549 160.917 61.7893 160.883 61.8236 160.883C62.2282 160.725 62.6589 160.644 63.0933 160.644C64.1913 160.644 65.1178 161.124 65.1178 161.742Z" fill="#DDFF39"/>
<path opacity="0.69" d="M64.7298 162.231C64.7525 162.425 64.6085 162.226 64.5723 162.405C64.5957 162.442 64.3413 162.547 64.3413 162.547L74.721 168.393L85.6208 174.605C86.3672 175.036 87.1474 175.49 88.6809 174.604C89.1766 174.294 90.9802 173.405 90.9802 173.405L96.8013 170.514C96.6195 170.416 96.146 170.232 96.146 170.232L88.8024 173.899C87.9693 174.334 87.7515 174.514 86.9903 174.497C86.229 174.481 85.4887 173.908 84.9771 173.608L64.7298 162.231Z" fill="#DDFF39"/>
<path opacity="0.643" d="M61.0034 157.347V161.533C61.0034 162.763 63.0623 162.7 63.0623 162.7C63.0623 162.7 65.087 162.74 65.087 161.533V155.905" fill="url(#paint82_linear_2117_1113)"/>
<path opacity="0.239" d="M65.074 156.612C65.0968 156.806 65.0362 156.657 65.0001 156.835C65.0235 156.872 64.767 157.055 64.767 157.055L85.623 168.602C86.3695 169.032 87.1497 169.487 88.6832 168.601C89.1789 168.291 90.9825 167.401 90.9825 167.401L96.8036 164.511C96.6218 164.412 96.1483 164.228 96.1483 164.228L88.8046 167.896C87.9716 168.331 87.7538 168.511 86.9925 168.494C86.2313 168.477 85.491 167.905 84.9794 167.605L65.074 156.612Z" fill="#DDFF39"/>
<path opacity="0.146" d="M65.1212 156.442C65.1212 157.06 64.1947 157.54 63.0623 157.54C61.9299 157.54 61.0034 157.059 61.0034 156.442C61.0059 156.341 61.032 156.241 61.0797 156.152C61.1274 156.062 61.1952 155.985 61.278 155.926L61.3466 155.858C61.4674 155.77 61.5934 155.69 61.7241 155.617C61.7583 155.617 61.7928 155.583 61.827 155.583C62.2316 155.425 62.6623 155.344 63.0967 155.344C64.1947 155.344 65.1212 155.824 65.1212 156.442Z" fill="#DDFF39"/>
<path opacity="0.172" d="M61.0034 152.226V156.413C61.0034 157.643 63.0623 157.58 63.0623 157.58C63.0623 157.58 65.087 157.62 65.087 156.413V150.785" fill="url(#paint83_linear_2117_1113)"/>
<g filter="url(#filter4_f_2117_1113)">
<path d="M114.777 58.4117C125.706 58.4117 134.566 51.4213 134.566 42.7981C134.566 34.175 125.706 27.1846 114.777 27.1846C103.848 27.1846 94.9878 34.175 94.9878 42.7981C94.9878 51.4213 103.848 58.4117 114.777 58.4117Z" fill="#C1DF26" fill-opacity="0.6"/>
</g>
<defs>
<filter id="filter0_d_2117_1113" x="66.8523" y="67.3986" width="41.0178" height="29.1376" filterUnits="userSpaceOnUse" color-interpolation-filters="sRGB">
<feFlood flood-opacity="0" result="BackgroundImageFix"/>
<feColorMatrix in="SourceAlpha" type="matrix" values="0 0 0 0 0 0 0 0 0 0 0 0 0 0 0 0 0 0 127 0" result="hardAlpha"/>
<feOffset dy="-0.465699"/>
<feColorMatrix type="matrix" values="0 0 0 0 0 0 0 0 0 0 0 0 0 0 0 0 0 0 0.957 0"/>
<feBlend mode="normal" in2="BackgroundImageFix" result="effect1_dropShadow_2117_1113"/>
<feBlend mode="normal" in="SourceGraphic" in2="effect1_dropShadow_2117_1113" result="shape"/>
</filter>
<filter id="filter1_d_2117_1113" x="72.9465" y="71.6739" width="29.1897" height="19.4882" filterUnits="userSpaceOnUse" color-interpolation-filters="sRGB">
<feFlood flood-opacity="0" result="BackgroundImageFix"/>
<feColorMatrix in="SourceAlpha" type="matrix" values="0 0 0 0 0 0 0 0 0 0 0 0 0 0 0 0 0 0 127 0" result="hardAlpha"/>
<feOffset dy="-0.465699"/>
<feColorMatrix type="matrix" values="0 0 0 0 0 0 0 0 0 0 0 0 0 0 0 0 0 0 0.957 0"/>
<feBlend mode="normal" in2="BackgroundImageFix" result="effect1_dropShadow_2117_1113"/>
<feBlend mode="normal" in="SourceGraphic" in2="effect1_dropShadow_2117_1113" result="shape"/>
</filter>
<filter id="filter2_d_2117_1113" x="43.1797" y="56.334" width="88.3159" height="53.8142" filterUnits="userSpaceOnUse" color-interpolation-filters="sRGB">
<feFlood flood-opacity="0" result="BackgroundImageFix"/>
<feColorMatrix in="SourceAlpha" type="matrix" values="0 0 0 0 0 0 0 0 0 0 0 0 0 0 0 0 0 0 127 0" result="hardAlpha"/>
<feOffset dy="0.931398"/>
<feColorMatrix type="matrix" values="0 0 0 0 0 0 0 0 0 0 0 0 0 0 0 0 0 0 0.749 0"/>
<feBlend mode="normal" in2="BackgroundImageFix" result="effect1_dropShadow_2117_1113"/>
<feBlend mode="normal" in="SourceGraphic" in2="effect1_dropShadow_2117_1113" result="shape"/>
</filter>
<filter id="filter3_d_2117_1113" x="43.8782" y="56.4873" width="86.8711" height="59.1052" filterUnits="userSpaceOnUse" color-interpolation-filters="sRGB">
<feFlood flood-opacity="0" result="BackgroundImageFix"/>
<feColorMatrix in="SourceAlpha" type="matrix" values="0 0 0 0 0 0 0 0 0 0 0 0 0 0 0 0 0 0 127 0" result="hardAlpha"/>
<feOffset dy="0.931398"/>
<feColorMatrix type="matrix" values="0 0 0 0 0 0 0 0 0 0 0 0 0 0 0 0 0 0 0.749 0"/>
<feBlend mode="normal" in2="BackgroundImageFix" result="effect1_dropShadow_2117_1113"/>
<feBlend mode="normal" in="SourceGraphic" in2="effect1_dropShadow_2117_1113" result="shape"/>
</filter>
<filter id="filter4_f_2117_1113" x="67.9772" y="0.174019" width="93.5997" height="85.2486" filterUnits="userSpaceOnUse" color-interpolation-filters="sRGB">
<feFlood flood-opacity="0" result="BackgroundImageFix"/>
<feBlend mode="normal" in="SourceGraphic" in2="BackgroundImageFix" result="shape"/>
<feGaussianBlur stdDeviation="13.5053" result="effect1_foregroundBlur_2117_1113"/>
</filter>
<radialGradient id="paint0_radial_2117_1113" cx="0" cy="0" r="1" gradientUnits="userSpaceOnUse" gradientTransform="translate(8.51911 42.7208) rotate(-87.2437) scale(218.35 88.8115)">
<stop stop-color="#D8F200"/>
<stop offset="0.274" stop-color="#364E3D"/>
<stop offset="0.946" stop-color="#25362A"/>
<stop offset="1" stop-color="#222222"/>
</radialGradient>
<linearGradient id="paint1_linear_2117_1113" x1="85.9533" y1="258.051" x2="86.4501" y2="56.9961" gradientUnits="userSpaceOnUse">
<stop stop-color="#A0FFD6"/>
<stop offset="0.244" stop-color="#364E3D"/>
<stop offset="0.731" stop-color="#25362A"/>
<stop offset="1" stop-color="#222222"/>
</linearGradient>
<radialGradient id="paint2_radial_2117_1113" cx="0" cy="0" r="1" gradientUnits="userSpaceOnUse" gradientTransform="translate(-82.9894 81.7713) rotate(170.928) scale(110.145 123.078)">
<stop stop-color="#D8F200"/>
<stop offset="0.274" stop-color="#364E3D"/>
<stop offset="0.946" stop-color="#25362A"/>
<stop offset="1" stop-color="#222222"/>
</radialGradient>
<linearGradient id="paint3_linear_2117_1113" x1="139.12" y1="28.9551" x2="139.12" y2="131.932" gradientUnits="userSpaceOnUse">
<stop stop-color="#7DE30B"/>
<stop offset="1" stop-color="#F6CD2A"/>
</linearGradient>
<linearGradient id="paint4_linear_2117_1113" x1="142.953" y1="27.1738" x2="142.953" y2="130.151" gradientUnits="userSpaceOnUse">
<stop stop-color="#7DE30B"/>
<stop offset="1" stop-color="#F6CD2A"/>
</linearGradient>
<linearGradient id="paint5_linear_2117_1113" x1="87.4666" y1="61.5294" x2="87.4666" y2="168.383" gradientUnits="userSpaceOnUse">
<stop stop-color="#A0FFD6"/>
<stop offset="0.244" stop-color="#364E3D"/>
<stop offset="0.731" stop-color="#25362A"/>
<stop offset="1" stop-color="#222222"/>
</linearGradient>
<linearGradient id="paint6_linear_2117_1113" x1="88.5479" y1="197.416" x2="88.5479" y2="103.611" gradientUnits="userSpaceOnUse">
<stop stop-color="#A0FFD6"/>
<stop offset="0.244" stop-color="#364E3D"/>
<stop offset="0.731" stop-color="#25362A"/>
<stop offset="1" stop-color="#222222"/>
</linearGradient>
<linearGradient id="paint7_linear_2117_1113" x1="88.5479" y1="169.093" x2="88.5479" y2="75.2874" gradientUnits="userSpaceOnUse">
<stop stop-color="#A0FFD6"/>
<stop offset="0.244" stop-color="#364E3D"/>
<stop offset="0.731" stop-color="#25362A"/>
<stop offset="1" stop-color="#222222"/>
</linearGradient>
<linearGradient id="paint8_linear_2117_1113" x1="91.2416" y1="149.632" x2="92.1557" y2="55.3293" gradientUnits="userSpaceOnUse">
<stop stop-color="#7DE30B"/>
<stop offset="1" stop-color="#F6CD2A"/>
</linearGradient>
<linearGradient id="paint9_linear_2117_1113" x1="91.4172" y1="173.862" x2="92.1903" y2="56.2842" gradientUnits="userSpaceOnUse">
<stop stop-color="#A0FFD6"/>
<stop offset="0.244" stop-color="#364E3D"/>
<stop offset="0.731" stop-color="#25362A"/>
<stop offset="1" stop-color="#222222"/>
</linearGradient>
<linearGradient id="paint10_linear_2117_1113" x1="88.5432" y1="143.778" x2="88.5432" y2="50.0583" gradientUnits="userSpaceOnUse">
<stop stop-color="#A0FFD6"/>
<stop offset="0.244" stop-color="#364E3D"/>
<stop offset="0.731" stop-color="#25362A"/>
<stop offset="1" stop-color="#222222"/>
</linearGradient>
<linearGradient id="paint11_linear_2117_1113" x1="195.905" y1="129.154" x2="-90.1347" y2="128.595" gradientUnits="userSpaceOnUse">
<stop stop-color="#A0FFD6"/>
<stop offset="0.244" stop-color="#364E3D"/>
<stop offset="0.397" stop-color="#25362A"/>
<stop offset="1" stop-color="#222222"/>
</linearGradient>
<linearGradient id="paint12_linear_2117_1113" x1="160.685" y1="128.116" x2="29.6194" y2="134.676" gradientUnits="userSpaceOnUse">
<stop stop-color="#FFFF6A"/>
<stop offset="0.263" stop-color="#364E3D"/>
<stop offset="0.559" stop-color="#25362A"/>
<stop offset="1" stop-color="#222222"/>
</linearGradient>
<linearGradient id="paint13_linear_2117_1113" x1="161.036" y1="94.3739" x2="40.9783" y2="96.2844" gradientUnits="userSpaceOnUse">
<stop stop-color="#FFFF6A"/>
<stop offset="0.289" stop-color="#364E3D"/>
<stop offset="0.654" stop-color="#25362A"/>
<stop offset="1" stop-color="#222222"/>
</linearGradient>
<linearGradient id="paint14_linear_2117_1113" x1="178.103" y1="65.7652" x2="140.666" y2="129.557" gradientUnits="userSpaceOnUse">
<stop stop-color="#A0FFD6" stop-opacity="0"/>
<stop offset="0.384" stop-color="#12ED53"/>
<stop offset="0.837" stop-color="#178638" stop-opacity="0"/>
<stop offset="1"/>
</linearGradient>
<linearGradient id="paint15_linear_2117_1113" x1="100.691" y1="21.3554" x2="129.005" y2="85.7699" gradientUnits="userSpaceOnUse">
<stop stop-color="#A0FFD6"/>
<stop offset="0.286" stop-color="#12ED53"/>
<stop offset="0.837" stop-color="#178638" stop-opacity="0"/>
<stop offset="1"/>
</linearGradient>
<linearGradient id="paint16_linear_2117_1113" x1="87.3132" y1="64.3706" x2="87.3132" y2="59.0322" gradientUnits="userSpaceOnUse">
<stop stop-color="#7DE30B" stop-opacity="0.282"/>
<stop offset="1" stop-color="#F6CD2A"/>
</linearGradient>
<linearGradient id="paint17_linear_2117_1113" x1="87.3132" y1="59.0413" x2="87.3132" y2="64.0845" gradientUnits="userSpaceOnUse">
<stop stop-color="#7DE30B"/>
<stop offset="1" stop-color="#F8FF00"/>
</linearGradient>
<linearGradient id="paint18_linear_2117_1113" x1="87.3069" y1="63.2919" x2="87.3069" y2="59.7717" gradientUnits="userSpaceOnUse">
<stop stop-color="#3DFF00"/>
<stop offset="1" stop-color="#F6CD2A"/>
</linearGradient>
<linearGradient id="paint19_linear_2117_1113" x1="87.3141" y1="62.7875" x2="87.3141" y2="60.5785" gradientUnits="userSpaceOnUse">
<stop stop-color="#7DE30B" stop-opacity="0.282"/>
<stop offset="1" stop-color="#F6CD2A"/>
</linearGradient>
<linearGradient id="paint20_linear_2117_1113" x1="87.3144" y1="60.583" x2="87.3144" y2="62.6694" gradientUnits="userSpaceOnUse">
<stop stop-color="#7DE30B"/>
<stop offset="1" stop-color="#F8FF00"/>
</linearGradient>
<linearGradient id="paint21_linear_2117_1113" x1="87.3099" y1="62.3407" x2="87.3099" y2="60.8844" gradientUnits="userSpaceOnUse">
<stop stop-color="#3DFF00"/>
<stop offset="1" stop-color="#F6CD2A"/>
</linearGradient>
<linearGradient id="paint22_linear_2117_1113" x1="87.3612" y1="76.0244" x2="87.3612" y2="85.8281" gradientUnits="userSpaceOnUse">
<stop stop-color="#7DE30B"/>
<stop offset="1" stop-color="#F6CD2A"/>
</linearGradient>
<linearGradient id="paint23_linear_2117_1113" x1="87.6038" y1="51.8982" x2="66.247" y2="76.3307" gradientUnits="userSpaceOnUse">
<stop stop-color="#7DE30B" stop-opacity="0"/>
<stop offset="0.438" stop-color="#99BC34" stop-opacity="0.4"/>
<stop offset="0.729" stop-color="#A6F228" stop-opacity="0.376"/>
<stop offset="1" stop-color="#B1F62A" stop-opacity="0.404"/>
</linearGradient>
<linearGradient id="paint24_linear_2117_1113" x1="48.387" y1="142.66" x2="42.6533" y2="170.875" gradientUnits="userSpaceOnUse">
<stop stop-color="#7DE30B"/>
<stop offset="0.298" stop-color="#E8DB23"/>
<stop offset="1" stop-color="#F6CD2A" stop-opacity="0"/>
</linearGradient>
<linearGradient id="paint25_linear_2117_1113" x1="63.7035" y1="142.948" x2="63.7035" y2="151.744" gradientUnits="userSpaceOnUse">
<stop stop-color="#CCD824"/>
<stop offset="1" stop-color="#8DFF43"/>
</linearGradient>
<linearGradient id="paint26_linear_2117_1113" x1="63.7035" y1="137.501" x2="63.7035" y2="146.296" gradientUnits="userSpaceOnUse">
<stop stop-color="#CCD824"/>
<stop offset="1" stop-color="#8DFF43"/>
</linearGradient>
<linearGradient id="paint27_linear_2117_1113" x1="63.7035" y1="131.874" x2="63.7035" y2="140.669" gradientUnits="userSpaceOnUse">
<stop stop-color="#CCD824"/>
<stop offset="1" stop-color="#8DFF43"/>
</linearGradient>
<linearGradient id="paint28_linear_2117_1113" x1="63.7035" y1="126.245" x2="63.7035" y2="135.041" gradientUnits="userSpaceOnUse">
<stop stop-color="#CCD824"/>
<stop offset="1" stop-color="#8DFF43"/>
</linearGradient>
<linearGradient id="paint29_linear_2117_1113" x1="48.387" y1="142.66" x2="42.6533" y2="170.875" gradientUnits="userSpaceOnUse">
<stop stop-color="#7DE30B"/>
<stop offset="0.298" stop-color="#E8DB23"/>
<stop offset="1" stop-color="#F6CD2A" stop-opacity="0"/>
</linearGradient>
<linearGradient id="paint30_linear_2117_1113" x1="39.9872" y1="70.1764" x2="65.6287" y2="134.871" gradientUnits="userSpaceOnUse">
<stop stop-color="#A0FFD6"/>
<stop offset="0.331" stop-color="#364E3D"/>
<stop offset="0.451" stop-color="#3C5947"/>
<stop offset="1" stop-color="#222222"/>
</linearGradient>
<linearGradient id="paint31_linear_2117_1113" x1="72.8251" y1="83.3267" x2="66.827" y2="83.5609" gradientUnits="userSpaceOnUse">
<stop stop-color="#A0FFD6"/>
<stop offset="0.244" stop-color="#364E3D"/>
<stop offset="0.355" stop-color="#25362A"/>
<stop offset="1" stop-color="#222222"/>
</linearGradient>
<linearGradient id="paint32_linear_2117_1113" x1="96.5334" y1="88.6642" x2="73.2419" y2="102.956" gradientUnits="userSpaceOnUse">
<stop stop-color="#A0FFD6"/>
<stop offset="0.244" stop-color="#364E3D"/>
<stop offset="0.355" stop-color="#25362A"/>
<stop offset="1" stop-color="#222222"/>
</linearGradient>
<linearGradient id="paint33_linear_2117_1113" x1="58.1079" y1="85.4889" x2="80.4829" y2="114.808" gradientUnits="userSpaceOnUse">
<stop stop-color="#A0FFD6"/>
<stop offset="0.151" stop-color="#364E3D"/>
<stop offset="0.731" stop-color="#25362A"/>
<stop offset="1" stop-color="#222222"/>
</linearGradient>
<linearGradient id="paint34_linear_2117_1113" x1="107.673" y1="85.4889" x2="130.047" y2="114.81" gradientUnits="userSpaceOnUse">
<stop stop-color="#A0FFD6"/>
<stop offset="0.151" stop-color="#364E3D"/>
<stop offset="0.731" stop-color="#25362A"/>
<stop offset="1" stop-color="#222222"/>
</linearGradient>
<linearGradient id="paint35_linear_2117_1113" x1="82.7379" y1="70.1764" x2="108.379" y2="134.871" gradientUnits="userSpaceOnUse">
<stop stop-color="#A0FFD6"/>
<stop offset="0.331" stop-color="#364E3D"/>
<stop offset="0.451" stop-color="#3C5947"/>
<stop offset="1" stop-color="#222222"/>
</linearGradient>
<linearGradient id="paint36_linear_2117_1113" x1="111.862" y1="83.3267" x2="105.864" y2="83.5609" gradientUnits="userSpaceOnUse">
<stop stop-color="#A0FFD6"/>
<stop offset="0.244" stop-color="#364E3D"/>
<stop offset="0.355" stop-color="#25362A"/>
<stop offset="1" stop-color="#222222"/>
</linearGradient>
<linearGradient id="paint37_linear_2117_1113" x1="130.034" y1="88.6642" x2="106.742" y2="102.956" gradientUnits="userSpaceOnUse">
<stop stop-color="#A0FFD6"/>
<stop offset="0.244" stop-color="#364E3D"/>
<stop offset="0.355" stop-color="#25362A"/>
<stop offset="1" stop-color="#222222"/>
</linearGradient>
<linearGradient id="paint38_linear_2117_1113" x1="81.745" y1="46.3913" x2="107.386" y2="111.086" gradientUnits="userSpaceOnUse">
<stop stop-color="#A0FFD6"/>
<stop offset="0.331" stop-color="#364E3D"/>
<stop offset="0.451" stop-color="#3C5947"/>
<stop offset="1" stop-color="#222222"/>
</linearGradient>
<linearGradient id="paint39_linear_2117_1113" x1="139.621" y1="62.2653" x2="109.561" y2="82.4375" gradientUnits="userSpaceOnUse">
<stop stop-color="#A0FFD6"/>
<stop offset="0.244" stop-color="#364E3D"/>
<stop offset="0.355" stop-color="#25362A"/>
<stop offset="1" stop-color="#222222"/>
</linearGradient>
<linearGradient id="paint40_linear_2117_1113" x1="137.972" y1="64.9718" x2="115.1" y2="79.1054" gradientUnits="userSpaceOnUse">
<stop stop-color="#A0FFD6"/>
<stop offset="0.244" stop-color="#364E3D"/>
<stop offset="0.355" stop-color="#25362A"/>
<stop offset="1" stop-color="#222222"/>
</linearGradient>
<linearGradient id="paint41_linear_2117_1113" x1="40.0756" y1="46.3903" x2="65.717" y2="111.085" gradientUnits="userSpaceOnUse">
<stop stop-color="#A0FFD6"/>
<stop offset="0.331" stop-color="#364E3D"/>
<stop offset="0.451" stop-color="#3C5947"/>
<stop offset="1" stop-color="#222222"/>
</linearGradient>
<linearGradient id="paint42_linear_2117_1113" x1="104.582" y1="62.2643" x2="74.5218" y2="82.4365" gradientUnits="userSpaceOnUse">
<stop stop-color="#A0FFD6"/>
<stop offset="0.244" stop-color="#364E3D"/>
<stop offset="0.355" stop-color="#25362A"/>
<stop offset="1" stop-color="#222222"/>
</linearGradient>
<linearGradient id="paint43_linear_2117_1113" x1="86.9567" y1="64.9709" x2="64.0846" y2="79.1044" gradientUnits="userSpaceOnUse">
<stop stop-color="#A0FFD6"/>
<stop offset="0.244" stop-color="#364E3D"/>
<stop offset="0.355" stop-color="#25362A"/>
<stop offset="1" stop-color="#222222"/>
</linearGradient>
<linearGradient id="paint44_linear_2117_1113" x1="65.9136" y1="68.0529" x2="70.072" y2="70.6519" gradientUnits="userSpaceOnUse">
<stop stop-color="#CCD824"/>
<stop offset="1" stop-color="#8DFF43"/>
</linearGradient>
<linearGradient id="paint45_linear_2117_1113" x1="105.855" y1="90.5656" x2="110.013" y2="93.1646" gradientUnits="userSpaceOnUse">
<stop stop-color="#CCD824"/>
<stop offset="1" stop-color="#8DFF43"/>
</linearGradient>
<linearGradient id="paint46_linear_2117_1113" x1="69.7778" y1="90.5714" x2="65.7124" y2="93.3135" gradientUnits="userSpaceOnUse">
<stop stop-color="#CCD824"/>
<stop offset="1" stop-color="#8DFF43"/>
</linearGradient>
<linearGradient id="paint47_linear_2117_1113" x1="108.452" y1="68.2413" x2="104.387" y2="70.9834" gradientUnits="userSpaceOnUse">
<stop stop-color="#CCD824"/>
<stop offset="1" stop-color="#8DFF43"/>
</linearGradient>
<linearGradient id="paint48_linear_2117_1113" x1="87.313" y1="106.127" x2="87.313" y2="100.789" gradientUnits="userSpaceOnUse">
<stop stop-color="#7DE30B" stop-opacity="0.282"/>
<stop offset="1" stop-color="#F6CD2A"/>
</linearGradient>
<linearGradient id="paint49_linear_2117_1113" x1="87.313" y1="100.798" x2="87.313" y2="105.841" gradientUnits="userSpaceOnUse">
<stop stop-color="#7DE30B"/>
<stop offset="1" stop-color="#F8FF00"/>
</linearGradient>
<linearGradient id="paint50_linear_2117_1113" x1="87.3067" y1="105.049" x2="87.3067" y2="101.529" gradientUnits="userSpaceOnUse">
<stop stop-color="#3DFF00"/>
<stop offset="1" stop-color="#F6CD2A"/>
</linearGradient>
<linearGradient id="paint51_linear_2117_1113" x1="50.6394" y1="84.8862" x2="50.6394" y2="79.5478" gradientUnits="userSpaceOnUse">
<stop stop-color="#7DE30B" stop-opacity="0.282"/>
<stop offset="1" stop-color="#F6CD2A"/>
</linearGradient>
<linearGradient id="paint52_linear_2117_1113" x1="50.6394" y1="79.5569" x2="50.6394" y2="84.6001" gradientUnits="userSpaceOnUse">
<stop stop-color="#7DE30B"/>
<stop offset="1" stop-color="#F8FF00"/>
</linearGradient>
<linearGradient id="paint53_linear_2117_1113" x1="50.6333" y1="83.8066" x2="50.6333" y2="80.2864" gradientUnits="userSpaceOnUse">
<stop stop-color="#3DFF00"/>
<stop offset="1" stop-color="#F6CD2A"/>
</linearGradient>
<linearGradient id="paint54_linear_2117_1113" x1="123.803" y1="84.8862" x2="123.803" y2="79.5478" gradientUnits="userSpaceOnUse">
<stop stop-color="#7DE30B" stop-opacity="0.282"/>
<stop offset="1" stop-color="#F6CD2A"/>
</linearGradient>
<linearGradient id="paint55_linear_2117_1113" x1="123.803" y1="79.5569" x2="123.803" y2="84.6001" gradientUnits="userSpaceOnUse">
<stop stop-color="#7DE30B"/>
<stop offset="1" stop-color="#F8FF00"/>
</linearGradient>
<linearGradient id="paint56_linear_2117_1113" x1="123.797" y1="83.8076" x2="123.797" y2="80.2874" gradientUnits="userSpaceOnUse">
<stop stop-color="#3DFF00"/>
<stop offset="1" stop-color="#F6CD2A"/>
</linearGradient>
<linearGradient id="paint57_linear_2117_1113" x1="87.3141" y1="104.545" x2="87.3141" y2="102.336" gradientUnits="userSpaceOnUse">
<stop stop-color="#7DE30B" stop-opacity="0.282"/>
<stop offset="1" stop-color="#F6CD2A"/>
</linearGradient>
<linearGradient id="paint58_linear_2117_1113" x1="87.3144" y1="102.341" x2="87.3144" y2="104.427" gradientUnits="userSpaceOnUse">
<stop stop-color="#7DE30B"/>
<stop offset="1" stop-color="#F8FF00"/>
</linearGradient>
<linearGradient id="paint59_linear_2117_1113" x1="87.3099" y1="104.098" x2="87.3099" y2="102.642" gradientUnits="userSpaceOnUse">
<stop stop-color="#3DFF00"/>
<stop offset="1" stop-color="#F6CD2A"/>
</linearGradient>
<linearGradient id="paint60_linear_2117_1113" x1="123.805" y1="83.3032" x2="123.805" y2="81.0941" gradientUnits="userSpaceOnUse">
<stop stop-color="#7DE30B" stop-opacity="0.282"/>
<stop offset="1" stop-color="#F6CD2A"/>
</linearGradient>
<linearGradient id="paint61_linear_2117_1113" x1="123.805" y1="81.0986" x2="123.805" y2="83.185" gradientUnits="userSpaceOnUse">
<stop stop-color="#7DE30B"/>
<stop offset="1" stop-color="#F8FF00"/>
</linearGradient>
<linearGradient id="paint62_linear_2117_1113" x1="123.804" y1="82.8563" x2="123.804" y2="81.4" gradientUnits="userSpaceOnUse">
<stop stop-color="#3DFF00"/>
<stop offset="1" stop-color="#F6CD2A"/>
</linearGradient>
<linearGradient id="paint63_linear_2117_1113" x1="50.6383" y1="83.3032" x2="50.6383" y2="81.0941" gradientUnits="userSpaceOnUse">
<stop stop-color="#7DE30B" stop-opacity="0.282"/>
<stop offset="1" stop-color="#F6CD2A"/>
</linearGradient>
<linearGradient id="paint64_linear_2117_1113" x1="50.6386" y1="81.0986" x2="50.6386" y2="83.185" gradientUnits="userSpaceOnUse">
<stop stop-color="#7DE30B"/>
<stop offset="1" stop-color="#F8FF00"/>
</linearGradient>
<linearGradient id="paint65_linear_2117_1113" x1="50.6341" y1="82.8563" x2="50.6341" y2="81.4" gradientUnits="userSpaceOnUse">
<stop stop-color="#3DFF00"/>
<stop offset="1" stop-color="#F6CD2A"/>
</linearGradient>
<linearGradient id="paint66_linear_2117_1113" x1="112.55" y1="167.803" x2="112.55" y2="129.626" gradientUnits="userSpaceOnUse">
<stop stop-color="#A0FFD6"/>
<stop offset="0.244" stop-color="#364E3D"/>
<stop offset="0.731" stop-color="#25362A"/>
<stop offset="1" stop-color="#222222"/>
</linearGradient>
<linearGradient id="paint67_linear_2117_1113" x1="80.0947" y1="166.416" x2="113.737" y2="137.18" gradientUnits="userSpaceOnUse">
<stop stop-color="#A0FFD6"/>
<stop offset="0.244" stop-color="#364E3D"/>
<stop offset="0.731" stop-color="#25362A"/>
<stop offset="1" stop-color="#222222"/>
</linearGradient>
<linearGradient id="paint68_linear_2117_1113" x1="112.55" y1="154.005" x2="112.55" y2="115.828" gradientUnits="userSpaceOnUse">
<stop stop-color="#A0FFD6"/>
<stop offset="0.244" stop-color="#364E3D"/>
<stop offset="0.731" stop-color="#25362A"/>
<stop offset="1" stop-color="#222222"/>
</linearGradient>
<linearGradient id="paint69_linear_2117_1113" x1="80.0947" y1="152.617" x2="113.737" y2="123.381" gradientUnits="userSpaceOnUse">
<stop stop-color="#A0FFD6"/>
<stop offset="0.244" stop-color="#364E3D"/>
<stop offset="0.731" stop-color="#25362A"/>
<stop offset="1" stop-color="#222222"/>
</linearGradient>
<linearGradient id="paint70_linear_2117_1113" x1="65.3925" y1="159.508" x2="111.497" y2="127.959" gradientUnits="userSpaceOnUse">
<stop stop-color="#A0FFD6"/>
<stop offset="0.244" stop-color="#364E3D"/>
<stop offset="0.731" stop-color="#25362A"/>
<stop offset="1" stop-color="#222222"/>
</linearGradient>
<linearGradient id="paint71_linear_2117_1113" x1="65.3925" y1="173.307" x2="111.497" y2="141.758" gradientUnits="userSpaceOnUse">
<stop stop-color="#A0FFD6"/>
<stop offset="0.244" stop-color="#364E3D"/>
<stop offset="0.731" stop-color="#25362A"/>
<stop offset="1" stop-color="#222222"/>
</linearGradient>
<linearGradient id="paint72_linear_2117_1113" x1="29.4021" y1="130.388" x2="29.4021" y2="133.713" gradientUnits="userSpaceOnUse">
<stop stop-color="#7DE30B" stop-opacity="0"/>
<stop offset="1" stop-color="#F6CD2A"/>
</linearGradient>
<linearGradient id="paint73_linear_2117_1113" x1="42.5638" y1="144.933" x2="42.5638" y2="148.378" gradientUnits="userSpaceOnUse">
<stop stop-color="#7DE30B" stop-opacity="0"/>
<stop offset="1" stop-color="#F6CD2A"/>
</linearGradient>
<linearGradient id="paint74_linear_2117_1113" x1="29.4021" y1="125.445" x2="29.4021" y2="128.77" gradientUnits="userSpaceOnUse">
<stop stop-color="#7DE30B" stop-opacity="0"/>
<stop offset="1" stop-color="#F6CD2A"/>
</linearGradient>
<linearGradient id="paint75_linear_2117_1113" x1="42.5638" y1="140.167" x2="42.5638" y2="143.612" gradientUnits="userSpaceOnUse">
<stop stop-color="#7DE30B" stop-opacity="0"/>
<stop offset="1" stop-color="#F6CD2A"/>
</linearGradient>
<linearGradient id="paint76_linear_2117_1113" x1="147.065" y1="130.388" x2="147.065" y2="133.714" gradientUnits="userSpaceOnUse">
<stop stop-color="#7DE30B" stop-opacity="0"/>
<stop offset="1" stop-color="#F6CD2A"/>
</linearGradient>
<linearGradient id="paint77_linear_2117_1113" x1="132.86" y1="145.463" x2="132.86" y2="148.908" gradientUnits="userSpaceOnUse">
<stop stop-color="#7DE30B" stop-opacity="0"/>
<stop offset="1" stop-color="#F6CD2A"/>
</linearGradient>
<linearGradient id="paint78_linear_2117_1113" x1="147.069" y1="125.445" x2="147.069" y2="128.77" gradientUnits="userSpaceOnUse">
<stop stop-color="#7DE30B" stop-opacity="0"/>
<stop offset="1" stop-color="#F6CD2A"/>
</linearGradient>
<linearGradient id="paint79_linear_2117_1113" x1="132.864" y1="140.696" x2="132.864" y2="144.141" gradientUnits="userSpaceOnUse">
<stop stop-color="#7DE30B" stop-opacity="0"/>
<stop offset="1" stop-color="#F6CD2A"/>
</linearGradient>
<linearGradient id="paint80_linear_2117_1113" x1="97.9047" y1="165.591" x2="97.9047" y2="169.036" gradientUnits="userSpaceOnUse">
<stop stop-color="#7DE30B" stop-opacity="0"/>
<stop offset="1" stop-color="#F6CD2A"/>
</linearGradient>
<linearGradient id="paint81_linear_2117_1113" x1="97.9047" y1="159.763" x2="97.9047" y2="163.208" gradientUnits="userSpaceOnUse">
<stop stop-color="#7DE30B" stop-opacity="0"/>
<stop offset="1" stop-color="#F6CD2A"/>
</linearGradient>
<linearGradient id="paint82_linear_2117_1113" x1="63.0452" y1="157.645" x2="63.0452" y2="161.09" gradientUnits="userSpaceOnUse">
<stop stop-color="#7DE30B" stop-opacity="0"/>
<stop offset="1" stop-color="#F6CD2A"/>
</linearGradient>
<linearGradient id="paint83_linear_2117_1113" x1="63.0452" y1="152.525" x2="63.0452" y2="155.97" gradientUnits="userSpaceOnUse">
<stop stop-color="#7DE30B" stop-opacity="0"/>
<stop offset="1" stop-color="#F6CD2A"/>
</linearGradient>
</defs>
</svg>
