<svg width="33" height="33" viewBox="0 0 33 33" fill="none" xmlns="http://www.w3.org/2000/svg">
<rect x="0.927734" y="0.0585938" width="32" height="32" rx="16" fill="#01F9AF"/>
<path d="M16.9304 13.6586C16.2939 13.6586 15.6835 13.9114 15.2334 14.3615C14.7833 14.8116 14.5304 15.4221 14.5304 16.0586C14.5304 16.6951 14.7833 17.3056 15.2334 17.7557C15.6835 18.2057 16.2939 18.4586 16.9304 18.4586C17.5669 18.4586 18.1774 18.2057 18.6275 17.7557C19.0776 17.3056 19.3304 16.6951 19.3304 16.0586C19.3304 15.4221 19.0776 14.8116 18.6275 14.3615C18.1774 13.9114 17.5669 13.6586 16.9304 13.6586ZM16.9304 12.0586C17.9913 12.0586 19.0087 12.48 19.7588 13.2302C20.509 13.9803 20.9304 14.9977 20.9304 16.0586C20.9304 17.1195 20.509 18.1369 19.7588 18.887C19.0087 19.6372 17.9913 20.0586 16.9304 20.0586C15.8696 20.0586 14.8521 19.6372 14.102 18.887C13.3518 18.1369 12.9304 17.1195 12.9304 16.0586C12.9304 14.9977 13.3518 13.9803 14.102 13.2302C14.8521 12.48 15.8696 12.0586 16.9304 12.0586ZM22.1304 11.8586C22.1304 12.1238 22.0251 12.3782 21.8375 12.5657C21.65 12.7532 21.3956 12.8586 21.1304 12.8586C20.8652 12.8586 20.6109 12.7532 20.4233 12.5657C20.2358 12.3782 20.1304 12.1238 20.1304 11.8586C20.1304 11.5934 20.2358 11.339 20.4233 11.1515C20.6109 10.964 20.8652 10.8586 21.1304 10.8586C21.3956 10.8586 21.65 10.964 21.8375 11.1515C22.0251 11.339 22.1304 11.5934 22.1304 11.8586ZM16.9304 9.65859C14.9512 9.65859 14.628 9.66419 13.7072 9.70499C13.08 9.73459 12.6592 9.81859 12.2688 9.97059C11.9421 10.0905 11.6468 10.2828 11.4048 10.533C11.1544 10.7749 10.9619 11.0703 10.8416 11.397C10.6896 11.789 10.6056 12.209 10.5768 12.8354C10.5352 13.7186 10.5296 14.0274 10.5296 16.0586C10.5296 18.0386 10.5352 18.361 10.576 19.2818C10.6056 19.9082 10.6896 20.3298 10.8408 20.7194C10.9768 21.0674 11.1368 21.3178 11.4024 21.5834C11.672 21.8522 11.9224 22.013 12.2664 22.1458C12.6616 22.2986 13.0824 22.3834 13.7064 22.4122C14.5896 22.4538 14.8984 22.4586 16.9296 22.4586C18.9096 22.4586 19.232 22.453 20.1528 22.4122C20.7784 22.3826 21.1992 22.2986 21.5904 22.1474C21.9168 22.0269 22.2121 21.8347 22.4544 21.585C22.724 21.3162 22.8848 21.0658 23.0176 20.721C23.1696 20.3274 23.2544 19.9066 23.2832 19.281C23.3248 18.3986 23.3296 18.089 23.3296 16.0586C23.3296 14.0794 23.324 13.7562 23.2832 12.8354C23.2536 12.2098 23.1688 11.7874 23.0176 11.397C22.897 11.0706 22.7049 10.7754 22.4552 10.533C22.2134 10.2825 21.918 10.0899 21.5912 9.96979C21.1992 9.81779 20.7784 9.73379 20.1528 9.70499C19.2704 9.66339 18.9624 9.65859 16.9304 9.65859ZM16.9304 8.05859C19.104 8.05859 19.3752 8.06659 20.2288 8.10659C21.08 8.14659 21.6608 8.28019 22.1704 8.47859C22.6984 8.68179 23.1432 8.95699 23.588 9.40099C23.9948 9.80091 24.3096 10.2847 24.5104 10.8186C24.708 11.3282 24.8424 11.909 24.8824 12.761C24.92 13.6138 24.9304 13.885 24.9304 16.0586C24.9304 18.2322 24.9224 18.5034 24.8824 19.3562C24.8424 20.2082 24.708 20.7882 24.5104 21.2986C24.3101 21.8328 23.9953 22.3167 23.588 22.7162C23.188 23.1228 22.7043 23.4376 22.1704 23.6386C21.6608 23.8362 21.08 23.9706 20.2288 24.0106C19.3752 24.0482 19.104 24.0586 16.9304 24.0586C14.7568 24.0586 14.4856 24.0506 13.632 24.0106C12.7808 23.9706 12.2008 23.8362 11.6904 23.6386C11.1563 23.4382 10.6724 23.1234 10.2728 22.7162C9.86597 22.3163 9.55119 21.8326 9.35042 21.2986C9.15202 20.789 9.01842 20.2082 8.97842 19.3562C8.94002 18.5034 8.93042 18.2322 8.93042 16.0586C8.93042 13.885 8.93842 13.6138 8.97842 12.761C9.01842 11.9082 9.15202 11.329 9.35042 10.8186C9.55061 10.2843 9.86546 9.80045 10.2728 9.40099C10.6726 8.99398 11.1564 8.67918 11.6904 8.47859C12.2 8.28019 12.78 8.14659 13.632 8.10659C14.4856 8.06899 14.7568 8.05859 16.9304 8.05859Z" fill="black"/>
</svg>
