<svg width="33" height="33" viewBox="0 0 33 33" fill="none" xmlns="http://www.w3.org/2000/svg">
<rect x="0.927734" y="0.0585938" width="32" height="32" rx="16" fill="#01F9AF"/>
<path d="M13.1319 21.2538L13.7111 21.5922C14.6878 22.1618 15.7987 22.4609 16.9295 22.4586C18.1953 22.4586 19.4326 22.0832 20.4851 21.38C21.5376 20.6768 22.3579 19.6772 22.8423 18.5078C23.3267 17.3383 23.4534 16.0515 23.2065 14.81C22.9595 13.5685 22.35 12.4282 21.4549 11.5331C20.5599 10.6381 19.4195 10.0285 18.178 9.78157C16.9366 9.53462 15.6497 9.66136 14.4803 10.1458C13.3108 10.6302 12.3113 11.4505 11.608 12.5029C10.9048 13.5554 10.5295 14.7928 10.5295 16.0586C10.5271 17.1897 10.8265 18.3009 11.3967 19.2778L11.7343 19.857L11.2119 21.7778L13.1319 21.2538ZM8.93265 24.0586L10.0143 20.0842C9.30153 18.8625 8.92709 17.473 8.92945 16.0586C8.92945 11.6402 12.5111 8.05859 16.9295 8.05859C21.3479 8.05859 24.9295 11.6402 24.9295 16.0586C24.9295 20.477 21.3479 24.0586 16.9295 24.0586C15.5157 24.0609 14.1268 23.6867 12.9055 22.9746L8.93265 24.0586ZM14.0423 12.305C14.1495 12.297 14.2575 12.297 14.3647 12.3018C14.4079 12.305 14.4511 12.3098 14.4943 12.3146C14.6215 12.329 14.7615 12.4066 14.8087 12.5138C15.0471 13.0546 15.2791 13.5994 15.5031 14.1458C15.5527 14.2674 15.5231 14.4234 15.4287 14.5754C15.3807 14.653 15.3055 14.7618 15.2183 14.873C15.1279 14.989 14.9335 15.2018 14.9335 15.2018C14.9335 15.2018 14.8543 15.2962 14.8847 15.4138C14.8959 15.4586 14.9327 15.5234 14.9663 15.5778L15.0135 15.6538C15.2183 15.9954 15.4935 16.3418 15.8295 16.6682C15.9255 16.761 16.0191 16.8562 16.1199 16.945C16.4943 17.2754 16.9183 17.545 17.3759 17.745L17.3799 17.7466C17.4479 17.7762 17.4823 17.7922 17.5815 17.8346C17.6311 17.8554 17.6823 17.873 17.7343 17.8874C17.788 17.9011 17.8446 17.8985 17.8968 17.88C17.9491 17.8615 17.9947 17.8279 18.0279 17.7834C18.6071 17.0818 18.6599 17.0362 18.6647 17.0362V17.0378C18.7049 17.0003 18.7527 16.9718 18.8049 16.9543C18.857 16.9367 18.9123 16.9306 18.9671 16.9362C19.0151 16.9394 19.0639 16.9482 19.1087 16.9682C19.5335 17.1626 20.2287 17.4658 20.2287 17.4658L20.6943 17.6746C20.7727 17.7122 20.8439 17.801 20.8463 17.8866C20.8495 17.9402 20.8543 18.0266 20.8359 18.185C20.8103 18.3922 20.7479 18.641 20.6855 18.7714C20.6427 18.8604 20.586 18.9419 20.5175 19.013C20.4367 19.0977 20.3483 19.1749 20.2535 19.2434C20.1879 19.293 20.1535 19.3154 20.1535 19.3154C20.0539 19.3785 19.9517 19.4372 19.8471 19.4914C19.6411 19.6008 19.4136 19.6636 19.1807 19.6754C19.0327 19.6834 18.8847 19.6946 18.7359 19.6866C18.7295 19.6866 18.2815 19.617 18.2815 19.617C17.1441 19.3178 16.0922 18.7574 15.2095 17.9802C15.0287 17.821 14.8607 17.6498 14.6895 17.4794C13.9791 16.7714 13.4407 16.0074 13.1135 15.2858C12.9468 14.9318 12.8569 14.5466 12.8495 14.1554C12.8464 13.6696 13.0055 13.1967 13.3015 12.8114C13.3599 12.7362 13.4151 12.6578 13.5103 12.5674C13.6111 12.4714 13.6759 12.4202 13.7455 12.385C13.838 12.3386 13.9389 12.3114 14.0423 12.305Z" fill="black"/>
</svg>
