<svg width="34" height="34" viewBox="0 0 34 34" fill="none" xmlns="http://www.w3.org/2000/svg">
<path d="M17.0104 33.6722C7.80542 33.6722 0.34375 26.2105 0.34375 17.0055C0.34375 7.80053 7.80542 0.338867 17.0104 0.338867C26.2154 0.338867 33.6771 7.80053 33.6771 17.0055C33.6771 26.2105 26.2154 33.6722 17.0104 33.6722ZM17.0104 30.3389C20.5466 30.3389 23.938 28.9341 26.4385 26.4336C28.939 23.9331 30.3438 20.5418 30.3438 17.0055C30.3438 13.4693 28.939 10.0779 26.4385 7.57744C23.938 5.07696 20.5466 3.6722 17.0104 3.6722C13.4742 3.6722 10.0828 5.07696 7.58233 7.57744C5.08184 10.0779 3.67708 13.4693 3.67708 17.0055C3.67708 20.5418 5.08184 23.9331 7.58233 26.4336C10.0828 28.9341 13.4742 30.3389 17.0104 30.3389ZM8.67708 12.0055L13.6771 6.1722L18.6771 12.0055H15.3438V18.6722H12.0104V12.0055H8.67708ZM25.3437 22.0055L20.3438 27.8389L15.3438 22.0055H18.6771V15.3389H22.0104V22.0055H25.3437Z" fill="#FB7200" fill-opacity="0.9"/>
</svg>
