<svg width="22" height="22" viewBox="0 0 22 22" fill="none" xmlns="http://www.w3.org/2000/svg">
<g clip-path="url(#clip0_2183_6281)">
<path d="M11 22C17.0751 22 22 17.0751 22 11C22 4.92487 17.0751 0 11 0C4.92487 0 0 4.92487 0 11C0 17.0751 4.92487 22 11 22Z" fill="#F7931A"/>
<path d="M15.9419 9.63875C16.1578 8.19775 15.0599 7.42294 13.5597 6.90594L14.0465 4.95344L12.8585 4.65781L12.3841 6.55875C12.072 6.48038 11.7516 6.4075 11.4319 6.33462L11.9097 4.42131L10.7217 4.125L10.235 6.07681C9.97648 6.01769 9.72211 5.95994 9.47599 5.89806L9.47736 5.89187L7.83836 5.48281L7.52211 6.75194C7.52211 6.75194 8.40417 6.95406 8.38561 6.96644C8.86686 7.08675 8.95348 7.40506 8.93905 7.65806L8.38492 9.88212C8.41792 9.89037 8.46055 9.90275 8.50867 9.92131L8.38286 9.89037L7.60598 13.0061C7.54686 13.1519 7.39767 13.3712 7.0608 13.288C7.07317 13.3052 6.1973 13.0728 6.1973 13.0728L5.60742 14.4327L7.1543 14.8184C7.44167 14.8906 7.72355 14.9662 8.00061 15.037L7.50905 17.0115L8.69636 17.3071L9.18311 15.3546C9.50761 15.4419 9.82248 15.5231 10.1305 15.6001L9.64511 17.5443L10.8331 17.8399L11.3247 15.8696C13.3514 16.2532 14.8749 16.0985 15.5164 14.2656C16.0334 12.7902 15.4909 11.9384 14.4246 11.3836C15.2015 11.2049 15.7859 10.6941 15.9419 9.63875ZM13.2263 13.4461C12.8599 14.9222 10.3745 14.124 9.5688 13.9239L10.2219 11.308C11.0277 11.5094 13.6106 11.9075 13.2263 13.4461ZM13.5941 9.61744C13.2593 10.9601 11.1913 10.2774 10.521 10.1104L11.1122 7.7385C11.7825 7.90556 13.9434 8.217 13.5941 9.61744Z" fill="white"/>
</g>
<defs>
<clipPath id="clip0_2183_6281">
<rect width="22" height="22" fill="white"/>
</clipPath>
</defs>
</svg>
