<svg width="10" height="15" viewBox="0 0 10 15" fill="none" xmlns="http://www.w3.org/2000/svg">
<path d="M9.54752 9.40185C9.41158 9.26594 9.22723 9.18959 9.03501 9.18959C8.84279 9.18959 8.65844 9.26594 8.5225 9.40185L4.93418 12.9904L1.34587 9.40185C1.20915 9.26979 1.02603 9.19672 0.835965 9.19837C0.645895 9.20002 0.464077 9.27627 0.329673 9.41068C0.195269 9.54509 0.119031 9.72692 0.11738 9.917C0.115728 10.1071 0.188795 10.2902 0.320843 10.4269L4.42167 14.528C4.55761 14.6639 4.74196 14.7402 4.93418 14.7402C5.1264 14.7402 5.31075 14.6639 5.44669 14.528L9.54752 10.4269C9.68342 10.291 9.75977 10.1066 9.75977 9.91439C9.75977 9.72216 9.68342 9.5378 9.54752 9.40185Z" fill="white" fill-opacity="0.6"/>
<path d="M0.313806 6.07862C0.449747 6.21453 0.634098 6.29088 0.826319 6.29088C1.01854 6.29088 1.20289 6.21453 1.33883 6.07862L4.92715 2.49011L8.51546 6.07862C8.65218 6.21068 8.83529 6.28375 9.02536 6.2821C9.21543 6.28045 9.39725 6.2042 9.53165 6.06979C9.66606 5.93538 9.7423 5.75355 9.74395 5.56347C9.7456 5.37339 9.67253 5.19027 9.54048 5.05354L5.43966 0.952491C5.30372 0.816584 5.11937 0.740235 4.92715 0.740235C4.73493 0.740235 4.55057 0.816584 4.41463 0.952491L0.313806 5.05354C0.177906 5.18949 0.101562 5.37385 0.101562 5.56608C0.101562 5.75831 0.177906 5.94267 0.313806 6.07862Z" fill="white" fill-opacity="0.6"/>
</svg>
