<svg width="9" height="14" viewBox="0 0 9 14" fill="none" xmlns="http://www.w3.org/2000/svg">
<path d="M0.887211 5.62009L7.64219 5.62009C7.71058 5.61987 7.77762 5.60101 7.83608 5.56553C7.89455 5.53005 7.94224 5.47929 7.97401 5.41873C8.00577 5.35816 8.02042 5.29008 8.01638 5.22181C8.01233 5.15354 7.98974 5.08766 7.95104 5.03128L4.57355 0.152682C4.43357 -0.049592 4.09658 -0.049592 3.95622 0.152682L0.578733 5.03128C0.539639 5.08755 0.516713 5.15345 0.512446 5.22184C0.50818 5.29023 0.522736 5.35847 0.554533 5.41917C0.58633 5.47986 0.634153 5.53068 0.692804 5.5661C0.751455 5.60152 0.818693 5.62019 0.887211 5.62009Z" fill="white" fill-opacity="0.6"/>
<path d="M7.64209 7.88187L0.887109 7.88187C0.818718 7.88208 0.751681 7.90094 0.693213 7.93642C0.634745 7.9719 0.58706 8.02266 0.555291 8.08322C0.523522 8.14379 0.508873 8.21187 0.51292 8.28014C0.516966 8.34841 0.539556 8.41429 0.578257 8.47068L3.95574 13.3493C4.09572 13.5515 4.43272 13.5515 4.57307 13.3493L7.95056 8.47068C7.98966 8.41441 8.01258 8.3485 8.01685 8.28011C8.02112 8.21173 8.00656 8.14348 7.97476 8.08279C7.94297 8.02209 7.89514 7.97128 7.83649 7.93585C7.77784 7.90043 7.7106 7.88176 7.64209 7.88187Z" fill="white" fill-opacity="0.6"/>
</svg>
