<svg width="30" height="26" viewBox="0 0 30 26" fill="none" xmlns="http://www.w3.org/2000/svg">
<path d="M0.478179 23.3693L13.5047 0.967203C13.6514 0.714373 13.8677 0.503384 14.131 0.356394C14.3942 0.209404 14.6946 0.131836 15.0007 0.131836C15.3068 0.131836 15.6072 0.209404 15.8705 0.356394C16.1337 0.503384 16.35 0.714373 16.4967 0.967203L29.5232 23.3693C29.6651 23.6133 29.7369 23.8879 29.7316 24.166C29.7263 24.444 29.6441 24.716 29.4931 24.9551C29.3421 25.1941 29.1275 25.392 28.8704 25.5292C28.6134 25.6663 28.3227 25.7381 28.0272 25.7373H1.97418C1.67868 25.7381 1.38807 25.6663 1.13102 25.5292C0.873965 25.392 0.659344 25.1941 0.508321 24.9551C0.357297 24.716 0.275089 24.444 0.269803 24.166C0.264518 23.8879 0.336337 23.6133 0.478179 23.3693ZM16.814 15.0664L17.7275 9.908C17.7545 9.75526 17.7458 9.59882 17.7021 9.44956C17.6584 9.30029 17.5806 9.16177 17.4743 9.04362C17.368 8.92548 17.2356 8.83054 17.0863 8.7654C16.9371 8.70025 16.7746 8.66647 16.61 8.6664H13.3914C13.2269 8.66647 13.0643 8.70025 12.9151 8.7654C12.7658 8.83054 12.6335 8.92548 12.5271 9.04362C12.4208 9.16177 12.3431 9.30029 12.2993 9.44956C12.2556 9.59882 12.2469 9.75526 12.2739 9.908L13.1874 15.0664H16.814ZM17.494 19.1197C17.494 18.4974 17.2314 17.9005 16.7638 17.4604C16.2962 17.0203 15.662 16.7731 15.0007 16.7731C14.3394 16.7731 13.7052 17.0203 13.2377 17.4604C12.7701 17.9005 12.5074 18.4974 12.5074 19.1197C12.5074 19.7421 12.7701 20.339 13.2377 20.7791C13.7052 21.2192 14.3394 21.4664 15.0007 21.4664C15.662 21.4664 16.2962 21.2192 16.7638 20.7791C17.2314 20.339 17.494 19.7421 17.494 19.1197Z" fill="white"/>
</svg>
