<svg width="17" height="12" viewBox="0 0 17 12" fill="none" xmlns="http://www.w3.org/2000/svg">
<path d="M0.801889 12L15.2276 12C15.3737 11.9995 15.5168 11.9593 15.6417 11.8835C15.7666 11.8077 15.8684 11.6993 15.9362 11.57C16.0041 11.4406 16.0354 11.2953 16.0267 11.1495C16.0181 11.0037 15.9698 10.863 15.8872 10.7426L8.67433 0.323978C8.37539 -0.107993 7.65571 -0.107993 7.35598 0.323978L0.143114 10.7426C0.0596252 10.8627 0.0106653 11.0035 0.00155391 11.1495C-0.00755751 11.2956 0.0235281 11.4413 0.0914332 11.5709C0.159338 11.7005 0.261466 11.8091 0.38672 11.8847C0.511974 11.9604 0.655564 12.0002 0.801889 12Z" fill="#12ED60"/>
</svg>
