<svg width="10" height="8" viewBox="0 0 10 8" fill="none" xmlns="http://www.w3.org/2000/svg">
<path d="M4.92851 2.5L6.24935 3.81667V3.75C6.24935 3.41848 6.11765 3.10054 5.88323 2.86612C5.64881 2.6317 5.33087 2.5 4.99935 2.5H4.92851ZM3.13685 2.83333L3.78268 3.47917C3.76185 3.56667 3.74935 3.65417 3.74935 3.75C3.74935 4.08152 3.88104 4.39946 4.11546 4.63388C4.34989 4.8683 4.66783 5 4.99935 5C5.09102 5 5.18268 4.9875 5.27018 4.96667L5.91602 5.6125C5.63685 5.75 5.32852 5.83333 4.99935 5.83333C4.44681 5.83333 3.91691 5.61384 3.52621 5.22314C3.13551 4.83244 2.91602 4.30253 2.91602 3.75C2.91602 3.42083 2.99935 3.1125 3.13685 2.83333ZM0.832682 0.529167L1.78268 1.47917L1.97018 1.66667C1.28268 2.20833 0.741016 2.91667 0.416016 3.75C1.13685 5.57917 2.91602 6.875 4.99935 6.875C5.64518 6.875 6.26185 6.75 6.82435 6.525L7.00351 6.7L8.22018 7.91667L8.74935 7.3875L1.36185 0M4.99935 1.66667C5.55188 1.66667 6.08179 1.88616 6.47249 2.27686C6.86319 2.66756 7.08268 3.19747 7.08268 3.75C7.08268 4.01667 7.02851 4.275 6.93268 4.50833L8.15351 5.72917C8.77851 5.20833 9.27851 4.525 9.58268 3.75C8.86185 1.92083 7.08268 0.625 4.99935 0.625C4.41602 0.625 3.85768 0.729167 3.33268 0.916667L4.23685 1.8125C4.47435 1.72083 4.72852 1.66667 4.99935 1.66667Z" fill="white" fill-opacity="0.6"/>
</svg>
