

<svg width="57" height="57" viewBox="0 0 57 57" fill="none" xmlns="http://www.w3.org/2000/svg">
<path d="M28.5284 56.304C13.0365 56.304 0.478516 43.746 0.478516 28.254C0.478516 12.7621 13.0365 0.204102 28.5284 0.204102C44.0204 0.204102 56.5784 12.7621 56.5784 28.254C56.5784 43.746 44.0204 56.304 28.5284 56.304ZM28.5284 50.694C34.4799 50.694 40.1876 48.3298 44.3959 44.1215C48.6042 39.9132 50.9684 34.2055 50.9684 28.254C50.9684 22.3026 48.6042 16.5949 44.3959 12.3866C40.1876 8.17829 34.4799 5.81409 28.5284 5.81409C22.577 5.81409 16.8693 8.17829 12.661 12.3866C8.4527 16.5949 6.0885 22.3026 6.0885 28.254C6.0885 34.2055 8.4527 39.9132 12.661 44.1215C16.8693 48.3298 22.577 50.694 28.5284 50.694ZM14.5035 31.059H39.7484V36.669H28.5284V45.084L14.5035 31.059ZM28.5284 19.8391V11.4241L42.5534 25.449H17.3085V19.8391H28.5284Z" fill="#F8F8F8"/>
</svg>
