<svg width="49" height="52" viewBox="0 0 49 52" fill="none" xmlns="http://www.w3.org/2000/svg">
<path d="M41.7079 35.7314L33.3572 44.0565C32.2874 45.1225 30.8461 45.7175 29.3355 45.7175H7.33454C4.18943 45.7175 1.63867 43.164 1.63867 40.0154V6.9433C1.63867 3.79476 4.18943 1.24121 7.33454 1.24121H37.6861C40.8312 1.24121 43.382 3.79476 43.382 6.9433V31.6904C43.3869 33.2076 42.7827 34.6604 41.7079 35.7314Z" stroke="white" stroke-width="2.40428" stroke-miterlimit="10"/>
<path d="M46.7713 41.0517L38.4206 49.3768C37.3508 50.4428 35.9095 51.0378 34.3989 51.0378H12.4029C9.25779 51.0378 6.70703 48.4843 6.70703 45.3357V12.2636C6.70703 9.11507 9.25779 6.56152 12.4029 6.56152H42.7545C45.8996 6.56152 48.4503 9.11507 48.4503 12.2636V37.0107C48.4503 38.5279 47.8461 39.9807 46.7713 41.0517Z" fill="white"/>
<path d="M14.8398 20.0422C14.8398 19.4235 15.3414 18.9219 15.9602 18.9219H39.8605C40.4793 18.9219 40.9809 19.4235 40.9809 20.0422C40.9809 20.6609 40.4793 21.1625 39.8605 21.1625H15.9602C15.3414 21.1625 14.8398 20.6609 14.8398 20.0422Z" fill="black"/>
<path d="M14.8398 25.2707C14.8398 24.652 15.3414 24.1504 15.9602 24.1504H39.8605C40.4793 24.1504 40.9809 24.652 40.9809 25.2707C40.9809 25.8895 40.4793 26.391 39.8605 26.391H15.9602C15.3414 26.391 14.8398 25.8895 14.8398 25.2707Z" fill="black"/>
<path d="M14.8398 30.4983C14.8398 29.8795 15.3414 29.3779 15.9602 29.3779H39.8605C40.4793 29.3779 40.9809 29.8795 40.9809 30.4983C40.9809 31.117 40.4793 31.6186 39.8605 31.6186H15.9602C15.3414 31.6186 14.8398 31.117 14.8398 30.4983Z" fill="black"/>
<path d="M14.8398 35.7268C14.8398 35.108 15.3414 34.6064 15.9602 34.6064H27.9104C28.5291 34.6064 29.0307 35.108 29.0307 35.7268C29.0307 36.3455 28.5291 36.8471 27.9104 36.8471H15.9602C15.3414 36.8471 14.8398 36.3455 14.8398 35.7268Z" fill="black"/>
</svg>
