<svg width="59" height="65" viewBox="0 0 59 65" fill="none" xmlns="http://www.w3.org/2000/svg">
<path d="M52.9187 63.2789C55.8832 63.2789 58.0448 60.5004 57.3408 57.6287C54.7997 47.282 45.4275 39.5986 34.2568 39.5986C23.0861 39.5986 13.7084 47.282 11.1729 57.6342C10.4689 60.5059 12.6304 63.2789 15.595 63.2789H52.9187Z" fill="white" stroke="white" stroke-width="2.40428" stroke-miterlimit="10"/>
<path d="M34.2547 34.4252C41.3657 34.4252 47.1304 28.6813 47.1304 21.5959C47.1304 14.5105 41.3657 8.7666 34.2547 8.7666C27.1436 8.7666 21.3789 14.5105 21.3789 21.5959C21.3789 28.6813 27.1436 34.4252 34.2547 34.4252Z" fill="white" stroke="white" stroke-width="2.40428" stroke-miterlimit="10"/>
<path d="M6.53053 55.7113L6.53046 55.7116C6.18181 57.1355 6.37783 58.5399 6.96118 59.7348H5.38599C2.73493 59.7348 0.800925 57.2558 1.43088 54.6857C3.58842 45.9008 11.5423 39.5705 20.7831 38.0493C13.0113 41.631 8.43768 47.9429 6.53053 55.7113Z" fill="white" stroke="white" stroke-width="0.961712"/>
<path d="M31.9462 4.19252C23.7181 4.19252 17.0441 10.84 17.0441 19.0426C17.0441 19.9413 17.1252 20.8193 17.2789 21.6723C15.8839 19.5892 15.0687 17.0895 15.0687 14.4009C15.0687 7.15449 20.9626 1.27968 28.2337 1.27968C32.0036 1.27968 35.4033 2.8595 37.8052 5.38609C36.0072 4.61789 34.0257 4.19252 31.9462 4.19252Z" fill="white" stroke="white" stroke-width="0.961712"/>
</svg>
