<svg width="14" height="14" viewBox="0 0 14 14" fill="none" xmlns="http://www.w3.org/2000/svg">
<path d="M9.75 4.98C9.03 4.98 8.4 4.84 7.86 4.56C7.34 4.28 6.86 3.96 6.42 3.6C5.98 3.24 5.55 2.92 5.13 2.64C4.73 2.36 4.3 2.22 3.84 2.22C3.4 2.22 3.02 2.37 2.7 2.67C2.38 2.95 2.14 3.47 1.98 4.23L0 4.26C0.08 3.36 0.31 2.6 0.69 1.98C1.09 1.34 1.57 0.85 2.13 0.51C2.71 0.17 3.3 0 3.9 0C4.62 0 5.24 0.14 5.76 0.42C6.3 0.7 6.79 1.02 7.23 1.38C7.67 1.74 8.09 2.06 8.49 2.34C8.91 2.62 9.35 2.76 9.81 2.76C10.25 2.76 10.63 2.61 10.95 2.31C11.29 2.01 11.53 1.49 11.67 0.75H13.65C13.57 1.63 13.33 2.39 12.93 3.03C12.55 3.65 12.07 4.13 11.49 4.47C10.93 4.81 10.35 4.98 9.75 4.98Z" fill="white" fill-opacity="0.6"/>
<path d="M9.75 13.98C9.03 13.98 8.4 13.84 7.86 13.56C7.34 13.28 6.86 12.96 6.42 12.6C5.98 12.24 5.55 11.92 5.13 11.64C4.73 11.36 4.3 11.22 3.84 11.22C3.4 11.22 3.02 11.37 2.7 11.67C2.38 11.95 2.14 12.47 1.98 13.23L0 13.26C0.08 12.36 0.31 11.6 0.69 10.98C1.09 10.34 1.57 9.85 2.13 9.51C2.71 9.17 3.3 9 3.9 9C4.62 9 5.24 9.14 5.76 9.42C6.3 9.7 6.79 10.02 7.23 10.38C7.67 10.74 8.09 11.06 8.49 11.34C8.91 11.62 9.35 11.76 9.81 11.76C10.25 11.76 10.63 11.61 10.95 11.31C11.29 11.01 11.53 10.49 11.67 9.75H13.65C13.57 10.63 13.33 11.39 12.93 12.03C12.55 12.65 12.07 13.13 11.49 13.47C10.93 13.81 10.35 13.98 9.75 13.98Z" fill="white" fill-opacity="0.6"/>
</svg>
