<svg width="17" height="12" viewBox="0 0 17 12" fill="none" xmlns="http://www.w3.org/2000/svg">
<path d="M15.5907 1.83725e-06L1.16497 5.76108e-07C1.01891 0.000459281 0.87575 0.0407415 0.750887 0.116511C0.626024 0.192281 0.524191 0.300669 0.456347 0.430009C0.388503 0.559351 0.357217 0.704746 0.365859 0.850544C0.374501 0.996342 0.422742 1.13702 0.50539 1.25744L7.71825 11.676C8.01718 12.108 8.73687 12.108 9.0366 11.676L16.2495 1.25744C16.333 1.13728 16.3819 0.996524 16.391 0.850483C16.4001 0.704442 16.3691 0.558696 16.3011 0.429082C16.2332 0.299467 16.1311 0.19094 16.0059 0.115293C15.8806 0.0396452 15.737 -0.000227985 15.5907 1.83725e-06Z" fill="#ED1212"/>
</svg>
