<svg width="25" height="26" viewBox="0 0 25 26" fill="none" xmlns="http://www.w3.org/2000/svg">
<path d="M12.5 6.84825C15.956 6.84825 18.8086 9.70083 18.8086 13.1568C18.8086 16.6677 15.956 19.4654 12.5 19.4654C8.98913 19.4654 6.19141 16.6677 6.19141 13.1568C6.19141 9.70083 8.98913 6.84825 12.5 6.84825ZM12.5 17.2711C14.7492 17.2711 16.5594 15.4609 16.5594 13.1568C16.5594 10.9077 14.7492 9.0974 12.5 9.0974C10.196 9.0974 8.3857 10.9077 8.3857 13.1568C8.3857 15.4609 10.2508 17.2711 12.5 17.2711ZM20.5092 6.62882C20.5092 7.45168 19.8509 8.10997 19.028 8.10997C18.2052 8.10997 17.5469 7.45168 17.5469 6.62882C17.5469 5.80596 18.2052 5.14767 19.028 5.14767C19.8509 5.14767 20.5092 5.80596 20.5092 6.62882ZM24.6783 8.10997C24.788 10.1397 24.788 16.2289 24.6783 18.2586C24.5686 20.2334 24.1298 21.934 22.7035 23.4152C21.2772 24.8415 19.5217 25.2803 17.5469 25.39C15.5172 25.4997 9.42799 25.4997 7.39827 25.39C5.4234 25.2803 3.72283 24.8415 2.24168 23.4152C0.815388 21.934 0.376529 20.2334 0.266814 18.2586C0.1571 16.2289 0.1571 10.1397 0.266814 8.10997C0.376529 6.13511 0.815388 4.37967 2.24168 2.95338C3.72283 1.52709 5.4234 1.08823 7.39827 0.978516C9.42799 0.868801 15.5172 0.868801 17.5469 0.978516C19.5217 1.08823 21.2772 1.52709 22.7035 2.95338C24.1298 4.37967 24.5686 6.13511 24.6783 8.10997ZM22.0452 20.398C22.7035 18.8072 22.5389 14.9671 22.5389 13.1568C22.5389 11.4014 22.7035 7.5614 22.0452 5.91568C21.6063 4.87339 20.7835 3.99567 19.7412 3.61167C18.0954 2.95338 14.2554 3.11795 12.5 3.11795C10.6897 3.11795 6.84969 2.95338 5.25883 3.61167C4.16169 4.05053 3.33883 4.87339 2.89997 5.91568C2.24168 7.5614 2.40625 11.4014 2.40625 13.1568C2.40625 14.9671 2.24168 18.8072 2.89997 20.398C3.33883 21.4952 4.16169 22.318 5.25883 22.7569C6.84969 23.4152 10.6897 23.2506 12.5 23.2506C14.2554 23.2506 18.0954 23.4152 19.7412 22.7569C20.7835 22.318 21.6612 21.4952 22.0452 20.398Z" fill="white" fill-opacity="0.4"/>
</svg>
