<svg width="27" height="23" viewBox="0 0 27 23" fill="none" xmlns="http://www.w3.org/2000/svg">
<path d="M24.0499 6.3063C24.0499 6.56615 24.0499 6.77403 24.0499 7.03388C24.0499 14.2577 18.5931 22.521 8.56284 22.521C5.44463 22.521 2.58628 21.6375 0.195652 20.0784C0.611413 20.1303 1.02717 20.1823 1.4949 20.1823C4.04144 20.1823 6.3801 19.2988 8.25102 17.8437C5.86039 17.7917 3.83356 16.2326 3.15795 14.0498C3.52174 14.1018 3.83356 14.1538 4.19735 14.1538C4.66508 14.1538 5.18478 14.0498 5.60054 13.9459C3.10598 13.4262 1.23505 11.2435 1.23505 8.59299V8.54102C1.96264 8.95678 2.84613 9.16466 3.72962 9.21663C2.22249 8.22919 1.28702 6.56615 1.28702 4.69523C1.28702 3.65583 1.54687 2.72036 2.01461 1.94081C4.71705 5.21493 8.77072 7.39767 13.2921 7.65752C13.1882 7.24176 13.1362 6.826 13.1362 6.41024C13.1362 3.39597 15.5788 0.953379 18.5931 0.953379C20.1522 0.953379 21.5554 1.57702 22.5948 2.66839C23.7901 2.40854 24.9854 1.94081 26.0248 1.31717C25.609 2.61642 24.7775 3.65583 23.6342 4.33144C24.7255 4.2275 25.8169 3.91568 26.7524 3.49991C26.0248 4.59129 25.0893 5.52675 24.0499 6.3063Z" fill="white" fill-opacity="0.4"/>
</svg>
