<svg width="24" height="24" viewBox="0 0 24 24" fill="none" xmlns="http://www.w3.org/2000/svg">
<path d="M5.55571 23.6895H0.722487V8.15039H5.55571V23.6895ZM3.11311 6.07159C1.60598 6.07159 0.358696 4.77233 0.358696 3.21323C0.358696 1.7061 1.60598 0.458814 3.11311 0.458814C4.67222 0.458814 5.9195 1.7061 5.9195 3.21323C5.9195 4.77233 4.67222 6.07159 3.11311 6.07159ZM23.5893 23.6895H18.8081V16.1538C18.8081 14.3348 18.7561 12.0481 16.2615 12.0481C13.767 12.0481 13.4032 13.971 13.4032 15.9979V23.6895H8.56997V8.15039H13.1953V10.2812H13.2473C13.9229 9.08585 15.482 7.7866 17.8207 7.7866C22.7058 7.7866 23.6413 11.0087 23.6413 15.1664V23.6895H23.5893Z" fill="white" fill-opacity="0.4"/>
</svg>
