<svg width="22" height="23" viewBox="0 0 22 23" fill="none" xmlns="http://www.w3.org/2000/svg">
<g clip-path="url(#clip0_2117_4661)">
<path d="M13.7955 4.77311C14.6908 4.9478 15.5137 5.38568 16.1587 6.03072C16.8038 6.67576 17.2416 7.4986 17.4163 8.39395L13.7955 4.77311ZM13.7955 1.10645C15.6557 1.3131 17.3903 2.14611 18.7145 3.4687C20.0388 4.7913 20.874 6.52487 21.083 8.38478L13.7955 1.10645ZM20.1663 15.6998V18.4498C20.1674 18.7051 20.1151 18.9578 20.0128 19.1917C19.9105 19.4256 19.7605 19.6356 19.5724 19.8082C19.3843 19.9807 19.1622 20.1121 18.9203 20.1939C18.6785 20.2757 18.4222 20.3061 18.168 20.2831C15.3473 19.9766 12.6377 19.0127 10.2572 17.4689C8.04233 16.0616 6.16455 14.1838 4.75715 11.9689C3.20797 9.57755 2.24388 6.85486 1.94299 4.02145C1.92008 3.76796 1.95021 3.51248 2.03145 3.27127C2.11269 3.03006 2.24326 2.80841 2.41486 2.62043C2.58645 2.43245 2.79531 2.28226 3.02813 2.17942C3.26095 2.07659 3.51263 2.02335 3.76715 2.02311H6.51715C6.96202 2.01873 7.3933 2.17627 7.7306 2.46635C8.06791 2.75643 8.28822 3.15927 8.35049 3.59978C8.46656 4.47984 8.68182 5.34395 8.99215 6.17561C9.11549 6.50371 9.14218 6.86028 9.06907 7.20309C8.99596 7.54589 8.82611 7.86055 8.57965 8.10978L7.41549 9.27395C8.72041 11.5689 10.6206 13.469 12.9155 14.7739L14.0797 13.6098C14.3289 13.3633 14.6435 13.1935 14.9863 13.1204C15.3291 13.0473 15.6857 13.0739 16.0138 13.1973C16.8455 13.5076 17.7096 13.7229 18.5897 13.8389C19.0349 13.9018 19.4416 14.1261 19.7323 14.4691C20.023 14.8122 20.1775 15.2502 20.1663 15.6998Z" stroke="#FB7200" stroke-width="2" stroke-linecap="round" stroke-linejoin="round"/>
</g>
<defs>
<clipPath id="clip0_2117_4661">
<rect width="22" height="22" fill="white" transform="translate(0 0.189453)"/>
</clipPath>
</defs>
</svg>
