<svg width="24" height="24" viewBox="0 0 24 24" fill="none" xmlns="http://www.w3.org/2000/svg">
<path d="M19.9654 4.04969C18.9411 3.02497 17.4942 2.86426 15.7868 2.86426H8.19295C6.50566 2.86426 5.05923 3.02497 4.03452 4.04926C3.01023 5.07354 2.85938 6.51012 2.85938 8.18797V15.7814C2.85938 17.4991 3.01023 18.9254 4.03452 19.9501C5.0588 20.9744 6.50566 21.1351 8.22338 21.1351H15.7868C17.4942 21.1351 18.9411 20.9744 19.9654 19.9501C20.9897 18.9258 21.1405 17.4991 21.1405 15.7814V8.21797C21.1405 6.50026 20.9901 5.06412 19.9654 4.04969ZM11.9999 17.8904C11.7896 17.8901 11.588 17.8064 11.4392 17.6577C11.2905 17.509 11.2067 17.3074 11.2062 17.0971V12.7883H6.90766C6.46538 12.7883 6.11395 12.4265 6.11395 12.0048C6.11395 11.5827 6.46538 11.2013 6.90723 11.2013H11.2062V6.90183C11.2062 6.45011 11.5577 6.09826 11.9999 6.09826C12.4521 6.09826 12.7937 6.44969 12.7937 6.90183V11.2013H17.1025C17.5448 11.2013 17.8962 11.5827 17.8962 12.0048C17.8962 12.4265 17.5448 12.7883 17.1025 12.7883H12.7937V17.0975C12.7943 17.2019 12.7742 17.3054 12.7345 17.402C12.6948 17.4985 12.6364 17.5862 12.5626 17.66C12.4887 17.7338 12.401 17.7922 12.3044 17.8318C12.2078 17.8715 12.1043 17.8911 11.9999 17.8904Z" fill="white" fill-opacity="0.5"/>
</svg>
