<svg width="23" height="24" viewBox="0 0 23 24" fill="none" xmlns="http://www.w3.org/2000/svg">
<g clip-path="url(#clip0_2183_6248)">
<path d="M11.1635 23.2644C17.3289 23.2644 22.3269 18.2664 22.3269 12.101C22.3269 5.93555 17.3289 0.9375 11.1635 0.9375C4.99805 0.9375 0 5.93555 0 12.101C0 18.2664 4.99805 23.2644 11.1635 23.2644Z" fill="#26A17B"/>
<path fill-rule="evenodd" clip-rule="evenodd" d="M12.4975 13.0675V13.0661C12.4208 13.0717 12.0252 13.0954 11.1426 13.0954C10.4379 13.0954 9.9418 13.0745 9.76737 13.0661V13.0682C7.05465 12.9489 5.02987 12.4765 5.02987 11.9114C5.02987 11.3469 7.05465 10.8746 9.76737 10.7532V12.5979C9.94459 12.6105 10.4525 12.6405 11.1544 12.6405C11.9966 12.6405 12.4187 12.6056 12.4975 12.5986V10.7546C15.2047 10.8753 17.2246 11.3476 17.2246 11.9114C17.2246 12.4765 15.2047 12.9475 12.4975 13.0675ZM12.4975 10.5627V8.91189H16.275V6.39453H5.98993V8.91189H9.76737V10.562C6.69742 10.7029 4.38867 11.3113 4.38867 12.0398C4.38867 12.7682 6.69742 13.3759 9.76737 13.5175V18.8076H12.4975V13.5161C15.5626 13.3752 17.8658 12.7675 17.8658 12.0398C17.8658 11.312 15.5626 10.7043 12.4975 10.5627Z" fill="white"/>
</g>
<rect x="0.465145" y="1.40264" width="21.3966" height="21.3966" stroke="white" stroke-opacity="0.1" stroke-width="0.930289"/>
<defs>
<clipPath id="clip0_2183_6248">
<rect y="0.9375" width="22.3269" height="22.3269" fill="white"/>
</clipPath>
</defs>
</svg>
