<svg width="72" height="72" viewBox="0 0 72 72" fill="none" xmlns="http://www.w3.org/2000/svg">
<rect x="0.25" y="0.75" width="71.6084" height="70.5" rx="10" fill="white"/>
<path d="M23.7676 28.2313C30.555 21.5896 41.5552 21.5896 48.3408 28.2313L49.1573 29.0305C49.238 29.1086 49.3021 29.2021 49.3459 29.3054C49.3897 29.4088 49.4122 29.5199 49.4122 29.6321C49.4122 29.7443 49.3897 29.8554 49.3459 29.9588C49.3021 30.0621 49.238 30.1556 49.1573 30.2337L46.3644 32.9677C46.3241 33.0081 46.2763 33.0401 46.2236 33.0619C46.171 33.0838 46.1145 33.095 46.0575 33.095C46.0005 33.095 45.9441 33.0838 45.8914 33.0619C45.8387 33.0401 45.7909 33.0081 45.7507 32.9677L44.6255 31.8686C39.8926 27.2344 32.2176 27.2344 27.4846 31.8686L26.2814 33.0475C26.199 33.1274 26.0886 33.1721 25.9737 33.1721C25.8588 33.1721 25.7485 33.1274 25.666 33.0475L22.873 30.3117C22.792 30.234 22.7275 30.1408 22.6835 30.0375C22.6394 29.9343 22.6167 29.8232 22.6167 29.711C22.6167 29.5988 22.6394 29.4877 22.6835 29.3844C22.7275 29.2812 22.792 29.1879 22.873 29.1103L23.7676 28.2313ZM54.1174 33.8883L56.6035 36.3224C56.6841 36.4004 56.7482 36.4939 56.792 36.5973C56.8358 36.7006 56.8584 36.8117 56.8584 36.924C56.8584 37.0362 56.8358 37.1473 56.792 37.2506C56.7482 37.354 56.6841 37.4475 56.6035 37.5255L45.3935 48.5015C45.2286 48.6609 45.0083 48.75 44.7789 48.75C44.5496 48.75 44.3292 48.6609 44.1643 48.5015L36.2102 40.7121C36.1693 40.6712 36.1138 40.6482 36.0559 40.6482C35.9981 40.6482 35.9426 40.6712 35.9016 40.7121L27.9458 48.5015C27.7809 48.6609 27.5605 48.75 27.3312 48.75C27.1018 48.75 26.8815 48.6609 26.7166 48.5015L15.5049 37.5255C15.4243 37.4475 15.3601 37.354 15.3164 37.2506C15.2726 37.1473 15.25 37.0362 15.25 36.924C15.25 36.8117 15.2726 36.7006 15.3164 36.5973C15.3601 36.4939 15.4243 36.4004 15.5049 36.3224L17.991 33.8883C18.1559 33.7289 18.3762 33.6398 18.6056 33.6398C18.8349 33.6398 19.0553 33.7289 19.2202 33.8883L27.176 41.6777C27.2627 41.7609 27.3997 41.7609 27.4846 41.6777L35.4405 33.8883C35.6053 33.7289 35.8257 33.6398 36.0551 33.6398C36.2844 33.6398 36.5048 33.7289 36.6696 33.8883L44.6255 41.6777C44.7122 41.7609 44.8474 41.7609 44.9341 41.6777L52.8899 33.8883C53.0541 33.7282 53.2744 33.6386 53.5037 33.6386C53.733 33.6386 53.9532 33.7282 54.1174 33.8883Z" fill="#0052FF"/>
</svg>
