<svg width="29" height="24" viewBox="0 0 29 24" fill="none" xmlns="http://www.w3.org/2000/svg">
<path fill-rule="evenodd" clip-rule="evenodd" d="M11.9144 0.192383H15.9883C18.3944 0.192383 20.3004 0.192383 21.7915 0.392674C23.3257 0.59951 24.5681 1.03413 25.5486 2.01333C26.7582 3.22424 27.1443 4.84489 27.2844 6.9486C28.0398 7.2798 28.6105 7.98278 28.6721 8.87296C28.6786 8.95282 28.6786 9.03791 28.6786 9.11646V14.1774C28.6786 14.2559 28.6786 14.341 28.6734 14.4196C28.6105 15.3098 28.0398 16.0141 27.2844 16.3466C27.1443 18.449 26.7582 20.0696 25.5486 21.2805C24.5681 22.2597 23.3257 22.6943 21.7915 22.9012C20.2991 23.1015 18.3944 23.1015 15.9883 23.1015H11.9144C9.50831 23.1015 7.60228 23.1015 6.11123 22.9012C4.57698 22.6943 3.33465 22.2597 2.35414 21.2805C1.37495 20.3 0.94033 19.0577 0.733494 17.5234C0.533203 16.0311 0.533203 14.1263 0.533203 11.7202V11.5736C0.533203 9.16751 0.533203 7.26147 0.733494 5.77042C0.94033 4.23617 1.37495 2.99384 2.35414 2.01333C3.33465 1.03413 4.57698 0.59951 6.11123 0.392674C7.60359 0.192383 9.50831 0.192383 11.9144 0.192383ZM25.2985 16.556H22.7615C19.9535 16.556 17.55 14.4248 17.55 11.6469C17.55 8.86904 19.9535 6.73784 22.7602 6.73784H25.2972C25.148 4.98235 24.8116 4.0542 24.1583 3.40227C23.6046 2.84853 22.8453 2.51602 21.5284 2.33929C20.1839 2.15864 18.4101 2.15602 15.9137 2.15602H11.9864C9.48998 2.15602 7.71748 2.15864 6.37043 2.33929C5.05479 2.51602 4.29552 2.84853 3.74178 3.40227C3.18803 3.95602 2.85553 4.71529 2.6788 6.03224C2.49814 7.37798 2.49553 9.15049 2.49553 11.6469C2.49553 14.1434 2.49814 15.9172 2.6788 17.2629C2.85553 18.5786 3.18803 19.3378 3.74178 19.8916C4.29552 20.4453 5.05479 20.7778 6.37174 20.9546C7.71748 21.1352 9.48998 21.1378 11.9864 21.1378H15.9137C18.4101 21.1378 20.1839 21.1352 21.5297 20.9546C22.8453 20.7778 23.6046 20.4453 24.1583 19.8916C24.8116 19.2397 25.1493 18.3128 25.2985 16.556ZM5.76956 6.41056C5.76956 6.15017 5.873 5.90044 6.05712 5.71631C6.24125 5.53219 6.49098 5.42875 6.75137 5.42875H11.9877C12.2481 5.42875 12.4978 5.53219 12.682 5.71631C12.8661 5.90044 12.9695 6.15017 12.9695 6.41056C12.9695 6.67096 12.8661 6.92069 12.682 7.10481C12.4978 7.28894 12.2481 7.39238 11.9877 7.39238H6.75137C6.49098 7.39238 6.24125 7.28894 6.05712 7.10481C5.873 6.92069 5.76956 6.67096 5.76956 6.41056ZM26.2882 8.70147H22.7615C20.8974 8.70147 19.5137 10.0878 19.5137 11.6469C19.5137 13.2061 20.8974 14.5924 22.7602 14.5924H26.3183C26.588 14.5754 26.7045 14.3934 26.7137 14.2834V9.01042C26.7045 8.90046 26.588 8.71849 26.3183 8.70278L26.2882 8.70147Z" fill="#F8F8F8" fill-opacity="0.5"/>
<path d="M26.6319 11.6481C26.6319 12.0459 26.4508 12.4275 26.1286 12.7088C25.8064 12.9901 25.3694 13.1481 24.9137 13.1481C24.458 13.1481 24.021 12.9901 23.6988 12.7088C23.3765 12.4275 23.1955 12.0459 23.1955 11.6481C23.1955 11.2503 23.3765 10.8687 23.6988 10.5874C24.021 10.3061 24.458 10.1481 24.9137 10.1481C25.3694 10.1481 25.8064 10.3061 26.1286 10.5874C26.4508 10.8687 26.6319 11.2503 26.6319 11.6481Z" fill="#F8F8F8" fill-opacity="0.5"/>
</svg>
